<svg xmlns="http://www.w3.org/2000/svg" xmlns:xlink="http://www.w3.org/1999/xlink" contentStyleType="text/css" data-diagram-type="SEQUENCE" height="635px" preserveAspectRatio="none" style="width:935px;height:635px;background:#FFFFFF;" version="1.1" viewBox="0 0 935 635" width="935px" zoomAndPan="magnify"><defs/><g><rect fill="none" height="265" style="stroke:#000000;stroke-width:1.5;" width="761.4819" x="166.7041" y="273.0938"/><g><title>Customer</title><rect fill="#000000" fill-opacity="0.00000" height="473.7969" width="8" x="38.002" y="81.2969"/><line style="stroke:#181818;stroke-width:0.5;stroke-dasharray:5.0,5.0;" x1="42" x2="42" y1="81.2969" y2="555.0938"/></g><g><title>UI</title><rect fill="#000000" fill-opacity="0.00000" height="473.7969" width="8" x="186.8921" y="81.2969"/><line style="stroke:#181818;stroke-width:0.5;stroke-dasharray:5.0,5.0;" x1="190.7041" x2="190.7041" y1="81.2969" y2="555.0938"/></g><g><title>BookingController</title><rect fill="#000000" fill-opacity="0.00000" height="473.7969" width="8" x="424.1035" y="81.2969"/><line style="stroke:#181818;stroke-width:0.5;stroke-dasharray:5.0,5.0;" x1="427.271" x2="427.271" y1="81.2969" y2="555.0938"/></g><g><title>RoomService</title><rect fill="#000000" fill-opacity="0.00000" height="473.7969" width="8" x="597.21" y="81.2969"/><line style="stroke:#181818;stroke-width:0.5;stroke-dasharray:5.0,5.0;" x1="601.0913" x2="601.0913" y1="81.2969" y2="555.0938"/></g><g><title>PaymentService</title><rect fill="#000000" fill-opacity="0.00000" height="473.7969" width="8" x="724.1592" y="81.2969"/><line style="stroke:#181818;stroke-width:0.5;stroke-dasharray:5.0,5.0;" x1="727.3286" x2="727.3286" y1="81.2969" y2="555.0938"/></g><g><title>Database</title><rect fill="#000000" fill-opacity="0.00000" height="473.7969" width="8" x="873.7856" y="81.2969"/><line style="stroke:#181818;stroke-width:0.5;stroke-dasharray:5.0,5.0;" x1="877.3853" x2="877.3853" y1="81.2969" y2="555.0938"/></g><g class="participant participant-head" data-participant="Customer"><text fill="#000000" font-family="sans-serif" font-size="14" lengthAdjust="spacing" textLength="68.0039" x="5" y="77.9951">Customer</text><ellipse cx="42.002" cy="13.5" fill="#E2E2F0" rx="8" ry="8" style="stroke:#181818;stroke-width:0.5;"/><path d="M42.002,21.5 L42.002,48.5 M29.002,29.5 L55.002,29.5 M42.002,48.5 L29.002,63.5 M42.002,48.5 L55.002,63.5" fill="none" style="stroke:#181818;stroke-width:0.5;"/></g><g class="participant participant-tail" data-participant="Customer"><text fill="#000000" font-family="sans-serif" font-size="14" lengthAdjust="spacing" textLength="68.0039" x="5" y="567.0889">Customer</text><ellipse cx="42.002" cy="578.8906" fill="#E2E2F0" rx="8" ry="8" style="stroke:#181818;stroke-width:0.5;"/><path d="M42.002,586.8906 L42.002,613.8906 M29.002,594.8906 L55.002,594.8906 M42.002,613.8906 L29.002,628.8906 M42.002,613.8906 L55.002,628.8906" fill="none" style="stroke:#181818;stroke-width:0.5;"/></g><g class="participant participant-head" data-participant="UI"><rect fill="#E2E2F0" height="30.2969" rx="2.5" ry="2.5" style="stroke:#181818;stroke-width:0.5;" width="28.376" x="176.7041" y="50"/><text fill="#000000" font-family="sans-serif" font-size="14" lengthAdjust="spacing" textLength="14.376" x="183.7041" y="69.9951">UI</text></g><g class="participant participant-tail" data-participant="UI"><rect fill="#E2E2F0" height="30.2969" rx="2.5" ry="2.5" style="stroke:#181818;stroke-width:0.5;" width="28.376" x="176.7041" y="554.0938"/><text fill="#000000" font-family="sans-serif" font-size="14" lengthAdjust="spacing" textLength="14.376" x="183.7041" y="574.0889">UI</text></g><g class="participant participant-head" data-participant="BookingController"><rect fill="#E2E2F0" height="30.2969" rx="2.5" ry="2.5" style="stroke:#181818;stroke-width:0.5;" width="139.665" x="358.271" y="50"/><text fill="#000000" font-family="sans-serif" font-size="14" lengthAdjust="spacing" textLength="125.665" x="365.271" y="69.9951">BookingController</text></g><g class="participant participant-tail" data-participant="BookingController"><rect fill="#E2E2F0" height="30.2969" rx="2.5" ry="2.5" style="stroke:#181818;stroke-width:0.5;" width="139.665" x="358.271" y="554.0938"/><text fill="#000000" font-family="sans-serif" font-size="14" lengthAdjust="spacing" textLength="125.665" x="365.271" y="574.0889">BookingController</text></g><g class="participant participant-head" data-participant="RoomService"><rect fill="#E2E2F0" height="30.2969" rx="2.5" ry="2.5" style="stroke:#181818;stroke-width:0.5;" width="106.2373" x="548.0913" y="50"/><text fill="#000000" font-family="sans-serif" font-size="14" lengthAdjust="spacing" textLength="92.2373" x="555.0913" y="69.9951">RoomService</text></g><g class="participant participant-tail" data-participant="RoomService"><rect fill="#E2E2F0" height="30.2969" rx="2.5" ry="2.5" style="stroke:#181818;stroke-width:0.5;" width="106.2373" x="548.0913" y="554.0938"/><text fill="#000000" font-family="sans-serif" font-size="14" lengthAdjust="spacing" textLength="92.2373" x="555.0913" y="574.0889">RoomService</text></g><g class="participant participant-head" data-participant="PaymentService"><rect fill="#E2E2F0" height="30.2969" rx="2.5" ry="2.5" style="stroke:#181818;stroke-width:0.5;" width="127.6611" x="664.3286" y="50"/><text fill="#000000" font-family="sans-serif" font-size="14" lengthAdjust="spacing" textLength="113.6611" x="671.3286" y="69.9951">PaymentService</text></g><g class="participant participant-tail" data-participant="PaymentService"><rect fill="#E2E2F0" height="30.2969" rx="2.5" ry="2.5" style="stroke:#181818;stroke-width:0.5;" width="127.6611" x="664.3286" y="554.0938"/><text fill="#000000" font-family="sans-serif" font-size="14" lengthAdjust="spacing" textLength="113.6611" x="671.3286" y="574.0889">PaymentService</text></g><g class="participant participant-head" data-participant="Database"><rect fill="#E2E2F0" height="30.2969" rx="2.5" ry="2.5" style="stroke:#181818;stroke-width:0.5;" width="80.8008" x="837.3853" y="50"/><text fill="#000000" font-family="sans-serif" font-size="14" lengthAdjust="spacing" textLength="66.8008" x="844.3853" y="69.9951">Database</text></g><g class="participant participant-tail" data-participant="Database"><rect fill="#E2E2F0" height="30.2969" rx="2.5" ry="2.5" style="stroke:#181818;stroke-width:0.5;" width="80.8008" x="837.3853" y="554.0938"/><text fill="#000000" font-family="sans-serif" font-size="14" lengthAdjust="spacing" textLength="66.8008" x="844.3853" y="574.0889">Database</text></g><g class="message" data-participant-1="Customer" data-participant-2="UI"><polygon fill="#181818" points="178.8921,108.4297,188.8921,112.4297,178.8921,116.4297,182.8921,112.4297" style="stroke:#181818;stroke-width:1;"/><line style="stroke:#181818;stroke-width:1;" x1="42.002" x2="184.8921" y1="112.4297" y2="112.4297"/><text fill="#000000" font-family="sans-serif" font-size="13" lengthAdjust="spacing" textLength="124.8901" x="49.002" y="107.3638">Fill in booking form</text></g><g class="message" data-participant-1="UI" data-participant-2="BookingController"><polygon fill="#181818" points="416.1035,137.5625,426.1035,141.5625,416.1035,145.5625,420.1035,141.5625" style="stroke:#181818;stroke-width:1;"/><line style="stroke:#181818;stroke-width:1;" x1="190.8921" x2="422.1035" y1="141.5625" y2="141.5625"/><text fill="#000000" font-family="sans-serif" font-size="13" lengthAdjust="spacing" textLength="136.519" x="197.8921" y="136.4966">submitBooking(data)</text></g><g class="message" data-participant-1="BookingController" data-participant-2="RoomService"><polygon fill="#181818" points="589.21,166.6953,599.21,170.6953,589.21,174.6953,593.21,170.6953" style="stroke:#181818;stroke-width:1;"/><line style="stroke:#181818;stroke-width:1;" x1="428.1035" x2="595.21" y1="170.6953" y2="170.6953"/><text fill="#000000" font-family="sans-serif" font-size="13" lengthAdjust="spacing" textLength="149.1064" x="435.1035" y="165.6294">checkAvailability(data)</text></g><g class="message" data-participant-1="RoomService" data-participant-2="Database"><polygon fill="#181818" points="865.7856,195.8281,875.7856,199.8281,865.7856,203.8281,869.7856,199.8281" style="stroke:#181818;stroke-width:1;"/><line style="stroke:#181818;stroke-width:1;" x1="601.21" x2="871.7856" y1="199.8281" y2="199.8281"/><text fill="#000000" font-family="sans-serif" font-size="13" lengthAdjust="spacing" textLength="151.6519" x="608.21" y="194.7622">queryAvailableRooms()</text></g><g class="message" data-participant-1="Database" data-participant-2="RoomService"><polygon fill="#181818" points="612.21,224.9609,602.21,228.9609,612.21,232.9609,608.21,228.9609" style="stroke:#181818;stroke-width:1;"/><line style="stroke:#181818;stroke-width:1;stroke-dasharray:2.0,2.0;" x1="606.21" x2="876.7856" y1="228.9609" y2="228.9609"/><text fill="#000000" font-family="sans-serif" font-size="13" lengthAdjust="spacing" textLength="80.5771" x="618.21" y="223.895">list of rooms</text></g><g class="message" data-participant-1="RoomService" data-participant-2="BookingController"><polygon fill="#181818" points="439.1035,254.0938,429.1035,258.0938,439.1035,262.0938,435.1035,258.0938" style="stroke:#181818;stroke-width:1;"/><line style="stroke:#181818;stroke-width:1;stroke-dasharray:2.0,2.0;" x1="433.1035" x2="600.21" y1="258.0938" y2="258.0938"/><text fill="#000000" font-family="sans-serif" font-size="13" lengthAdjust="spacing" textLength="93.52" x="445.1035" y="253.0278">roomAvailable</text></g><path d="M166.7041,273.0938 L231.147,273.0938 L231.147,280.2266 L221.147,290.2266 L166.7041,290.2266 L166.7041,273.0938" fill="#EEEEEE" style="stroke:#000000;stroke-width:1.5;"/><rect fill="none" height="265" style="stroke:#000000;stroke-width:1.5;" width="761.4819" x="166.7041" y="273.0938"/><text fill="#000000" font-family="sans-serif" font-size="13" font-weight="bold" lengthAdjust="spacing" textLength="19.4429" x="181.7041" y="286.1606">alt</text><text fill="#000000" font-family="sans-serif" font-size="11" font-weight="bold" lengthAdjust="spacing" textLength="105.0156" x="246.147" y="285.3042">[Room available]</text><g class="message" data-participant-1="BookingController" data-participant-2="PaymentService"><polygon fill="#181818" points="716.1592,307.3594,726.1592,311.3594,716.1592,315.3594,720.1592,311.3594" style="stroke:#181818;stroke-width:1;"/><line style="stroke:#181818;stroke-width:1;" x1="428.1035" x2="722.1592" y1="311.3594" y2="311.3594"/><text fill="#000000" font-family="sans-serif" font-size="13" lengthAdjust="spacing" textLength="117.8823" x="435.1035" y="306.2935">processPayment()</text></g><g class="message" data-participant-1="PaymentService" data-participant-2="Database"><polygon fill="#181818" points="865.7856,336.4922,875.7856,340.4922,865.7856,344.4922,869.7856,340.4922" style="stroke:#181818;stroke-width:1;"/><line style="stroke:#181818;stroke-width:1;" x1="728.1592" x2="871.7856" y1="340.4922" y2="340.4922"/><text fill="#000000" font-family="sans-serif" font-size="13" lengthAdjust="spacing" textLength="98.0713" x="735.1592" y="335.4263">savePayment()</text></g><g class="message" data-participant-1="Database" data-participant-2="PaymentService"><polygon fill="#181818" points="739.1592,365.625,729.1592,369.625,739.1592,373.625,735.1592,369.625" style="stroke:#181818;stroke-width:1;"/><line style="stroke:#181818;stroke-width:1;stroke-dasharray:2.0,2.0;" x1="733.1592" x2="876.7856" y1="369.625" y2="369.625"/><text fill="#000000" font-family="sans-serif" font-size="13" lengthAdjust="spacing" textLength="125.6265" x="745.1592" y="364.5591">paymentConfirmed</text></g><g class="message" data-participant-1="PaymentService" data-participant-2="BookingController"><polygon fill="#181818" points="439.1035,394.7578,429.1035,398.7578,439.1035,402.7578,435.1035,398.7578" style="stroke:#181818;stroke-width:1;"/><line style="stroke:#181818;stroke-width:1;stroke-dasharray:2.0,2.0;" x1="433.1035" x2="727.1592" y1="398.7578" y2="398.7578"/><text fill="#000000" font-family="sans-serif" font-size="13" lengthAdjust="spacing" textLength="110.2397" x="445.1035" y="393.6919">paymentSuccess</text></g><g class="message" data-participant-1="BookingController" data-participant-2="Database"><polygon fill="#181818" points="865.7856,423.8906,875.7856,427.8906,865.7856,431.8906,869.7856,427.8906" style="stroke:#181818;stroke-width:1;"/><line style="stroke:#181818;stroke-width:1;" x1="428.1035" x2="871.7856" y1="427.8906" y2="427.8906"/><text fill="#000000" font-family="sans-serif" font-size="13" lengthAdjust="spacing" textLength="93.0313" x="435.1035" y="422.8247">saveBooking()</text></g><g class="message" data-participant-1="Database" data-participant-2="BookingController"><polygon fill="#181818" points="439.1035,453.0234,429.1035,457.0234,439.1035,461.0234,435.1035,457.0234" style="stroke:#181818;stroke-width:1;"/><line style="stroke:#181818;stroke-width:1;stroke-dasharray:2.0,2.0;" x1="433.1035" x2="876.7856" y1="457.0234" y2="457.0234"/><text fill="#000000" font-family="sans-serif" font-size="13" lengthAdjust="spacing" textLength="119.5073" x="445.1035" y="451.9575">bookingConfirmed</text></g><g class="message" data-participant-1="BookingController" data-participant-2="UI"><polygon fill="#181818" points="201.8921,482.1563,191.8921,486.1563,201.8921,490.1563,197.8921,486.1563" style="stroke:#181818;stroke-width:1;"/><line style="stroke:#181818;stroke-width:1;" x1="195.8921" x2="427.1035" y1="486.1563" y2="486.1563"/><text fill="#000000" font-family="sans-serif" font-size="13" lengthAdjust="spacing" textLength="128.0767" x="207.8921" y="481.0903">showConfirmation()</text></g><line style="stroke:#000000;stroke-width:1;stroke-dasharray:2.0,2.0;" x1="166.7041" x2="928.186" y1="495.1563" y2="495.1563"/><text fill="#000000" font-family="sans-serif" font-size="11" font-weight="bold" lengthAdjust="spacing" textLength="122.563" x="171.7041" y="505.3667">[No room available]</text><g class="message" data-participant-1="BookingController" data-participant-2="UI"><polygon fill="#181818" points="201.8921,526.0938,191.8921,530.0938,201.8921,534.0938,197.8921,530.0938" style="stroke:#181818;stroke-width:1;"/><line style="stroke:#181818;stroke-width:1;" x1="195.8921" x2="427.1035" y1="530.0938" y2="530.0938"/><text fill="#000000" font-family="sans-serif" font-size="13" lengthAdjust="spacing" textLength="213.2114" x="207.8921" y="525.0278">showError("No rooms available")</text></g><!--SRC=[XLBDJiCm3BxdAQoTjiDUW0CI392u8CJ40xXfogobSN7IeRqzxfgLTUt4iVRtwnHjOe5D6nFNJao3aiXIWo71v-leyv5vJ-5hmo49Uty5_c2kjquEPDre_ex7seKqjth2X0L6PypP7jRtwWfty4BU0mKeUa-eM6gZ6zrFOYWyjaLDAM-MfUgkp1Idv8kKIhCxP_SF1oIF1NbAnqozH2dfd5CPtwsJOsPur-7YScK6m7fYuIacu0gaWuw5RtJfa8E3CUZxsm8ECu3PRkDBgr8ZR5sCUQuvuHepBXVnu2x1erfJzNwW6IgIsfKpwZSQPkQsjLsyMtMkWfqVTn9ipg4OPaEsMO_JlnPt_9EHc8Y3MZYluczyUel_3p-eF8kmB1UP6F-O2vKCvIy0]--></g></svg>