<svg xmlns="http://www.w3.org/2000/svg" xmlns:xlink="http://www.w3.org/1999/xlink" contentStyleType="text/css" data-diagram-type="STATE" height="607px" preserveAspectRatio="none" style="width:332px;height:607px;background:#FFFFFF;" version="1.1" viewBox="0 0 332 607" width="332px" zoomAndPan="magnify"><defs/><g><g id="pending"><rect fill="#F1F1F1" height="50" rx="12.5" ry="12.5" style="stroke:#181818;stroke-width:0.5;" width="83.9912" x="165.5" y="87"/><line style="stroke:#181818;stroke-width:0.5;" x1="165.5" x2="249.4912" y1="113.2969" y2="113.2969"/><text fill="#000000" font-family="sans-serif" font-size="14" lengthAdjust="spacing" textLength="63.9912" x="175.5" y="104.9951">PENDING</text></g><g id="confirmed"><rect fill="#F1F1F1" height="50" rx="12.5" ry="12.5" style="stroke:#181818;stroke-width:0.5;" width="104.8818" x="82" y="214"/><line style="stroke:#181818;stroke-width:0.5;" x1="82" x2="186.8818" y1="240.2969" y2="240.2969"/><text fill="#000000" font-family="sans-serif" font-size="14" lengthAdjust="spacing" textLength="84.8818" x="92" y="231.9951">CONFIRMED</text></g><g id="checked_in"><rect fill="#F1F1F1" height="50" rx="12.5" ry="12.5" style="stroke:#181818;stroke-width:0.5;" width="109.332" x="15" y="341"/><line style="stroke:#181818;stroke-width:0.5;" x1="15" x2="124.332" y1="367.2969" y2="367.2969"/><text fill="#000000" font-family="sans-serif" font-size="14" lengthAdjust="spacing" textLength="89.332" x="25" y="358.9951">CHECKED_IN</text></g><g id="checked_out"><rect fill="#F1F1F1" height="50" rx="12.5" ry="12.5" style="stroke:#181818;stroke-width:0.5;" width="124.5488" x="7" y="468"/><line style="stroke:#181818;stroke-width:0.5;" x1="7" x2="131.5488" y1="494.2969" y2="494.2969"/><text fill="#000000" font-family="sans-serif" font-size="14" lengthAdjust="spacing" textLength="104.5488" x="17" y="485.9951">CHECKED_OUT</text></g><g id="cancelled"><rect fill="#F1F1F1" height="50" rx="12.5" ry="12.5" style="stroke:#181818;stroke-width:0.5;" width="103.6719" x="194.5" y="341"/><line style="stroke:#181818;stroke-width:0.5;" x1="194.5" x2="298.1719" y1="367.2969" y2="367.2969"/><text fill="#000000" font-family="sans-serif" font-size="14" lengthAdjust="spacing" textLength="83.6719" x="204.5" y="358.9951">CANCELLED</text></g><ellipse cx="207.5" cy="16" fill="#222222" rx="10" ry="10" style="stroke:#222222;stroke-width:1;"/><ellipse cx="69.5" cy="590" fill="transparent" rx="11" ry="11" style="stroke:#222222;stroke-width:1;"/><ellipse cx="69.5" cy="590" fill="#222222" rx="6" ry="6" style="stroke:#222222;stroke-width:1;"/><!--link *start* to pending--><g id="link_*start*_pending"><path d="M207.5,26.01 C207.5,39.89 207.5,60.97 207.5,80.84 " fill="transparent" id="*start*-to-pending" style="stroke:#181818;stroke-width:1;"/><polygon fill="#181818" points="207.5,86.84,211.5,77.84,207.5,81.84,203.5,77.84,207.5,86.84" style="stroke:#181818;stroke-width:1;"/></g><!--link pending to confirmed--><g id="link_pending_confirmed"><path d="M165.1,132.95 C151.88,141.46 138.85,152.76 131.5,167 C124.14,181.25 123.9364,193.4405 126.5964,207.7905 " fill="transparent" id="pending-to-confirmed" style="stroke:#181818;stroke-width:1;"/><polygon fill="#181818" points="127.69,213.69,129.9827,204.1117,126.7787,208.7737,122.1167,205.5698,127.69,213.69" style="stroke:#181818;stroke-width:1;"/><text fill="#000000" font-family="sans-serif" font-size="13" lengthAdjust="spacing" textLength="122.2622" x="132.5" y="180.0669">/processPayment()</text></g><!--link pending to cancelled--><g id="link_pending_cancelled"><path d="M238.39,137.15 C246.87,145.58 254.97,155.77 259.5,167 C283.2,225.79 267.8396,296.6117 256.3496,335.0217 " fill="transparent" id="pending-to-cancelled" style="stroke:#181818;stroke-width:1;"/><polygon fill="#181818" points="254.63,340.77,261.0415,333.2939,256.063,335.9797,253.3771,331.0012,254.63,340.77" style="stroke:#181818;stroke-width:1;"/><text fill="#000000" font-family="sans-serif" font-size="13" lengthAdjust="spacing" textLength="52.2539" x="272.5" y="243.5669">cancel()</text></g><!--link confirmed to checked_in--><g id="link_confirmed_checked_in"><path d="M92.18,264.09 C81.88,272.17 72.2,282.19 66.5,294 C59.53,308.44 59.3527,320.6239 61.9127,334.9239 " fill="transparent" id="confirmed-to-checked_in" style="stroke:#181818;stroke-width:1;"/><polygon fill="#181818" points="62.97,340.83,65.3214,331.266,62.0889,335.9082,57.4466,332.6757,62.97,340.83" style="stroke:#181818;stroke-width:1;"/><text fill="#000000" font-family="sans-serif" font-size="13" lengthAdjust="spacing" textLength="93.7422" x="67.5" y="307.0669">/assignRoom()</text></g><!--link confirmed to cancelled--><g id="link_confirmed_cancelled"><path d="M156.09,264.1 C175.93,286.24 201.1562,314.3913 220.9662,336.5013 " fill="transparent" id="confirmed-to-cancelled" style="stroke:#181818;stroke-width:1;"/><polygon fill="#181818" points="224.97,340.97,221.9434,331.5977,221.6335,337.2461,215.9851,336.9362,224.97,340.97" style="stroke:#181818;stroke-width:1;"/><text fill="#000000" font-family="sans-serif" font-size="13" lengthAdjust="spacing" textLength="52.2539" x="198.5" y="307.0669">cancel()</text></g><!--link checked_in to checked_out--><g id="link_checked_in_checked_out"><path d="M69.5,391.1 C69.5,413.24 69.5,439.86 69.5,461.97 " fill="transparent" id="checked_in-to-checked_out" style="stroke:#181818;stroke-width:1;"/><polygon fill="#181818" points="69.5,467.97,73.5,458.97,69.5,462.97,65.5,458.97,69.5,467.97" style="stroke:#181818;stroke-width:1;"/><text fill="#000000" font-family="sans-serif" font-size="13" lengthAdjust="spacing" textLength="93.1709" x="70.5" y="434.0669">/generateBill()</text></g><!--link checked_out to *end*--><g id="link_checked_out_*end*"><path d="M69.5,518.46 C69.5,538.04 69.5,558.49 69.5,572.8 " fill="transparent" id="checked_out-to-*end*" style="stroke:#181818;stroke-width:1;"/><polygon fill="#181818" points="69.5,578.8,73.5,569.8,69.5,573.8,65.5,569.8,69.5,578.8" style="stroke:#181818;stroke-width:1;"/></g><!--SRC=[RO_13e8m44JlV4N3IKs8Tmyc2bM9M0pHap6aAIisGaie7lnx2qW1zTHDv-tiZAfe1SW-OkBvP6iZgb018k4YjLGhkI7P-D41Uut8fBZnCeV4o3lixh4N-wJLxy0UaCHSV0FX-JGYvBCoo8guE0Yw4rGmo39zmhhChiXnbYRIvst-J1AqGFEYb0oKEj9N3gAQJCTaPwZ9TjP0lzuW9dRjHfNYgOYap7_1lrxzzj1CDwpTKX1GwfvhdWtXMgrftV4D]--></g></svg>