<svg xmlns="http://www.w3.org/2000/svg" xmlns:xlink="http://www.w3.org/1999/xlink" contentStyleType="text/css" data-diagram-type="CLASS" height="893px" preserveAspectRatio="none" style="width:1061px;height:893px;background:#FFFFFF;" version="1.1" viewBox="0 0 1061 893" width="1061px" zoomAndPan="magnify"><defs/><g><!--class Hotel--><g id="elem_Hotel"><rect codeLine="1" fill="#F1F1F1" height="162.0781" id="Hotel" rx="2.5" ry="2.5" style="stroke:#181818;stroke-width:0.5;" width="244.7568" x="340.95" y="7"/><ellipse cx="440.5359" cy="23" fill="#ADD1B2" rx="11" ry="11" style="stroke:#181818;stroke-width:1;"/><path d="M443.5047,28.6406 Q442.9266,28.9375 442.2859,29.0781 Q441.6453,29.2344 440.9422,29.2344 Q438.4422,29.2344 437.1141,27.5938 Q435.8016,25.9375 435.8016,22.8125 Q435.8016,19.6875 437.1141,18.0313 Q438.4422,16.375 440.9422,16.375 Q441.6453,16.375 442.2859,16.5313 Q442.9422,16.6875 443.5047,16.9844 L443.5047,19.7031 Q442.8797,19.125 442.2859,18.8594 Q441.6922,18.5781 441.0672,18.5781 Q439.7234,18.5781 439.0359,19.6563 Q438.3484,20.7188 438.3484,22.8125 Q438.3484,24.9063 439.0359,25.9844 Q439.7234,27.0469 441.0672,27.0469 Q441.6922,27.0469 442.2859,26.7813 Q442.8797,26.5 443.5047,25.9219 L443.5047,28.6406 Z " fill="#000000"/><text fill="#000000" font-family="sans-serif" font-size="14" lengthAdjust="spacing" textLength="37.085" x="461.0359" y="27.8467">Hotel</text><line style="stroke:#181818;stroke-width:0.5;" x1="341.95" x2="584.7068" y1="39" y2="39"/><rect fill="transparent" height="6" style="stroke:#C82930;stroke-width:1;" width="6" x="348.95" y="49.6484"/><text fill="#000000" font-family="sans-serif" font-size="14" lengthAdjust="spacing" textLength="157.1924" x="360.95" y="55.9951">nom: String {not null}</text><rect fill="transparent" height="6" style="stroke:#C82930;stroke-width:1;" width="6" x="348.95" y="65.9453"/><text fill="#000000" font-family="sans-serif" font-size="14" lengthAdjust="spacing" textLength="181.1523" x="360.95" y="72.292">adresse: String {not null}</text><rect fill="transparent" height="6" style="stroke:#C82930;stroke-width:1;" width="6" x="348.95" y="82.2422"/><text fill="#000000" font-family="sans-serif" font-size="14" lengthAdjust="spacing" textLength="172.6279" x="360.95" y="88.5889">etoiles: int {range: 1..5}</text><rect fill="transparent" height="6" style="stroke:#C82930;stroke-width:1;" width="6" x="348.95" y="98.5391"/><text fill="#000000" font-family="sans-serif" font-size="14" lengthAdjust="spacing" textLength="218.7568" x="360.95" y="104.8857">rooms: List&lt;Room&gt; {ordered}</text><rect fill="transparent" height="6" style="stroke:#C82930;stroke-width:1;" width="6" x="348.95" y="114.8359"/><text fill="#000000" font-family="sans-serif" font-size="14" lengthAdjust="spacing" textLength="126.8408" x="360.95" y="121.1826">users: List&lt;User&gt;</text><line style="stroke:#181818;stroke-width:0.5;" x1="341.95" x2="584.7068" y1="128.4844" y2="128.4844"/><ellipse cx="351.95" cy="142.1328" fill="#84BE84" rx="3" ry="3" style="stroke:#038048;stroke-width:1;"/><text fill="#000000" font-family="sans-serif" font-size="14" lengthAdjust="spacing" textLength="202.7539" x="360.95" y="145.4795">addRoom(room: Room): void</text><ellipse cx="351.95" cy="158.4297" fill="#84BE84" rx="3" ry="3" style="stroke:#038048;stroke-width:1;"/><text fill="#000000" font-family="sans-serif" font-size="14" lengthAdjust="spacing" textLength="179.5938" x="360.95" y="161.7764">addUser(user: User): void</text></g><!--class Gestionnaire--><g id="elem_Gestionnaire"><rect codeLine="11" fill="#F1F1F1" height="162.0781" id="Gestionnaire" rx="2.5" ry="2.5" style="stroke:#181818;stroke-width:0.5;" width="673.2402" x="126.95" y="246"/><ellipse cx="414.678" cy="262" fill="#ADD1B2" rx="11" ry="11" style="stroke:#181818;stroke-width:1;"/><path d="M417.6468,267.6406 Q417.0687,267.9375 416.428,268.0781 Q415.7874,268.2344 415.0843,268.2344 Q412.5843,268.2344 411.2562,266.5938 Q409.9437,264.9375 409.9437,261.8125 Q409.9437,258.6875 411.2562,257.0313 Q412.5843,255.375 415.0843,255.375 Q415.7874,255.375 416.428,255.5313 Q417.0843,255.6875 417.6468,255.9844 L417.6468,258.7031 Q417.0218,258.125 416.428,257.8594 Q415.8343,257.5781 415.2093,257.5781 Q413.8655,257.5781 413.178,258.6563 Q412.4905,259.7188 412.4905,261.8125 Q412.4905,263.9063 413.178,264.9844 Q413.8655,266.0469 415.2093,266.0469 Q415.8343,266.0469 416.428,265.7813 Q417.0218,265.5 417.6468,264.9219 L417.6468,267.6406 Z " fill="#000000"/><text fill="#000000" font-family="sans-serif" font-size="14" lengthAdjust="spacing" textLength="89.2842" x="435.178" y="266.8467">Gestionnaire</text><line style="stroke:#181818;stroke-width:0.5;" x1="127.95" x2="799.1902" y1="278" y2="278"/><rect fill="transparent" height="6" style="stroke:#C82930;stroke-width:1;" width="6" x="134.95" y="288.6484"/><text fill="#000000" font-family="sans-serif" font-size="14" lengthAdjust="spacing" textLength="167.8496" x="146.95" y="294.9951">hotel: Hotel {readOnly}</text><rect fill="transparent" height="6" style="stroke:#C82930;stroke-width:1;" width="6" x="134.95" y="304.9453"/><text fill="#000000" font-family="sans-serif" font-size="14" lengthAdjust="spacing" textLength="254.0029" x="146.95" y="311.292">bookings: List&lt;Booking&gt; {ordered}</text><rect fill="transparent" height="6" style="stroke:#C82930;stroke-width:1;" width="6" x="134.95" y="321.2422"/><text fill="#000000" font-family="sans-serif" font-size="14" lengthAdjust="spacing" textLength="126.8408" x="146.95" y="327.5889">users: List&lt;User&gt;</text><rect fill="transparent" height="6" style="stroke:#C82930;stroke-width:1;" width="6" x="134.95" y="337.5391"/><text fill="#000000" font-family="sans-serif" font-size="14" lengthAdjust="spacing" textLength="141.415" x="146.95" y="343.8857">rooms: List&lt;Room&gt;</text><rect fill="transparent" height="6" style="stroke:#C82930;stroke-width:1;" width="6" x="134.95" y="353.8359"/><text fill="#000000" font-family="sans-serif" font-size="14" lengthAdjust="spacing" textLength="166.5576" x="146.95" y="360.1826">sc: Scanner {transient}</text><line style="stroke:#181818;stroke-width:0.5;" x1="127.95" x2="799.1902" y1="367.4844" y2="367.4844"/><ellipse cx="137.95" cy="381.1328" fill="#84BE84" rx="3" ry="3" style="stroke:#038048;stroke-width:1;"/><text fill="#000000" font-family="sans-serif" font-size="14" lengthAdjust="spacing" textLength="647.2402" x="146.95" y="384.4795">createBooking(user: User, room: Room, dateDebut: LocalDate, dateFin: LocalDate): Booking</text><ellipse cx="137.95" cy="397.4297" fill="#84BE84" rx="3" ry="3" style="stroke:#038048;stroke-width:1;"/><text fill="#000000" font-family="sans-serif" font-size="14" lengthAdjust="spacing" textLength="272.9932" x="146.95" y="400.7764">cancelBooking(booking: Booking): void</text></g><!--class Booking--><g id="elem_Booking"><rect codeLine="21" fill="#F1F1F1" height="162.0781" id="Booking" rx="2.5" ry="2.5" style="stroke:#181818;stroke-width:0.5;" width="712.7451" x="106.95" y="485"/><ellipse cx="430.8265" cy="501" fill="#ADD1B2" rx="11" ry="11" style="stroke:#181818;stroke-width:1;"/><path d="M433.7952,506.6406 Q433.2171,506.9375 432.5765,507.0781 Q431.9358,507.2344 431.2327,507.2344 Q428.7327,507.2344 427.4046,505.5938 Q426.0921,503.9375 426.0921,500.8125 Q426.0921,497.6875 427.4046,496.0313 Q428.7327,494.375 431.2327,494.375 Q431.9358,494.375 432.5765,494.5313 Q433.2327,494.6875 433.7952,494.9844 L433.7952,497.7031 Q433.1702,497.125 432.5765,496.8594 Q431.9827,496.5781 431.3577,496.5781 Q430.014,496.5781 429.3265,497.6563 Q428.639,498.7188 428.639,500.8125 Q428.639,502.9063 429.3265,503.9844 Q430.014,505.0469 431.3577,505.0469 Q431.9827,505.0469 432.5765,504.7813 Q433.1702,504.5 433.7952,503.9219 L433.7952,506.6406 Z " fill="#000000"/><text fill="#000000" font-family="sans-serif" font-size="14" lengthAdjust="spacing" textLength="56.4922" x="451.3265" y="505.8467">Booking</text><line style="stroke:#181818;stroke-width:0.5;" x1="107.95" x2="818.6951" y1="517" y2="517"/><rect fill="transparent" height="6" style="stroke:#C82930;stroke-width:1;" width="6" x="114.95" y="527.6484"/><text fill="#000000" font-family="sans-serif" font-size="14" lengthAdjust="spacing" textLength="183.2715" x="126.95" y="533.9951">id: int {unique, readOnly}</text><rect fill="transparent" height="6" style="stroke:#C82930;stroke-width:1;" width="6" x="114.95" y="543.9453"/><text fill="#000000" font-family="sans-serif" font-size="14" lengthAdjust="spacing" textLength="146.7813" x="126.95" y="550.292">user: User {not null}</text><rect fill="transparent" height="6" style="stroke:#C82930;stroke-width:1;" width="6" x="114.95" y="560.2422"/><text fill="#000000" font-family="sans-serif" font-size="14" lengthAdjust="spacing" textLength="161.3555" x="126.95" y="566.5889">room: Room {not null}</text><rect fill="transparent" height="6" style="stroke:#C82930;stroke-width:1;" width="6" x="114.95" y="576.5391"/><text fill="#000000" font-family="sans-serif" font-size="14" lengthAdjust="spacing" textLength="228.5391" x="126.95" y="582.8857">dateDebut: LocalDate {not null}</text><rect fill="transparent" height="6" style="stroke:#C82930;stroke-width:1;" width="6" x="114.95" y="592.8359"/><text fill="#000000" font-family="sans-serif" font-size="14" lengthAdjust="spacing" textLength="442.5107" x="126.95" y="599.1826">dateFin: LocalDate {not null, constraint: dateFin &gt; dateDebut}</text><rect fill="transparent" height="6" style="stroke:#C82930;stroke-width:1;" width="6" x="114.95" y="609.1328"/><text fill="#000000" font-family="sans-serif" font-size="14" lengthAdjust="spacing" textLength="686.7451" x="126.95" y="615.4795">status: BookingStatus {enum: PENDING, CONFIRMED, CANCELLED, CHECKED_IN, CHECKED_OUT}</text><line style="stroke:#181818;stroke-width:0.5;" x1="107.95" x2="818.6951" y1="622.7813" y2="622.7813"/><ellipse cx="117.95" cy="636.4297" fill="#84BE84" rx="3" ry="3" style="stroke:#038048;stroke-width:1;"/><text fill="#000000" font-family="sans-serif" font-size="14" lengthAdjust="spacing" textLength="149.9258" x="126.95" y="639.7764">calculateTotal(): float</text></g><!--class User--><g id="elem_User"><rect codeLine="31" fill="#F1F1F1" height="162.0781" id="User" rx="2.5" ry="2.5" style="stroke:#181818;stroke-width:0.5;" width="372.8008" x="71.95" y="724"/><ellipse cx="238.1453" cy="740" fill="#ADD1B2" rx="11" ry="11" style="stroke:#181818;stroke-width:1;"/><path d="M241.1141,745.6406 Q240.5359,745.9375 239.8953,746.0781 Q239.2547,746.2344 238.5516,746.2344 Q236.0516,746.2344 234.7234,744.5938 Q233.4109,742.9375 233.4109,739.8125 Q233.4109,736.6875 234.7234,735.0313 Q236.0516,733.375 238.5516,733.375 Q239.2547,733.375 239.8953,733.5313 Q240.5516,733.6875 241.1141,733.9844 L241.1141,736.7031 Q240.4891,736.125 239.8953,735.8594 Q239.3016,735.5781 238.6766,735.5781 Q237.3328,735.5781 236.6453,736.6563 Q235.9578,737.7188 235.9578,739.8125 Q235.9578,741.9063 236.6453,742.9844 Q237.3328,744.0469 238.6766,744.0469 Q239.3016,744.0469 239.8953,743.7813 Q240.4891,743.5 241.1141,742.9219 L241.1141,745.6406 Z " fill="#000000"/><text fill="#000000" font-family="sans-serif" font-size="14" lengthAdjust="spacing" textLength="31.9102" x="258.6453" y="744.8467">User</text><line style="stroke:#181818;stroke-width:0.5;" x1="72.95" x2="443.7508" y1="756" y2="756"/><rect fill="transparent" height="6" style="stroke:#C82930;stroke-width:1;" width="6" x="79.95" y="766.6484"/><text fill="#000000" font-family="sans-serif" font-size="14" lengthAdjust="spacing" textLength="214.0469" x="91.95" y="772.9951">userId: int {unique, readOnly}</text><rect fill="transparent" height="6" style="stroke:#C82930;stroke-width:1;" width="6" x="79.95" y="782.9453"/><text fill="#000000" font-family="sans-serif" font-size="14" lengthAdjust="spacing" textLength="194.7764" x="91.95" y="789.292">firstName: String {not null}</text><rect fill="transparent" height="6" style="stroke:#C82930;stroke-width:1;" width="6" x="79.95" y="799.2422"/><text fill="#000000" font-family="sans-serif" font-size="14" lengthAdjust="spacing" textLength="192.6709" x="91.95" y="805.5889">lastName: String {not null}</text><rect fill="transparent" height="6" style="stroke:#C82930;stroke-width:1;" width="6" x="79.95" y="815.5391"/><text fill="#000000" font-family="sans-serif" font-size="14" lengthAdjust="spacing" textLength="263.4639" x="91.95" y="821.8857">email: String {unique, format: email}</text><rect fill="transparent" height="6" style="stroke:#C82930;stroke-width:1;" width="6" x="79.95" y="831.8359"/><text fill="#000000" font-family="sans-serif" font-size="14" lengthAdjust="spacing" textLength="346.8008" x="91.95" y="838.1826">phoneNumber: String {pattern: "^\+?[0-9\-]+$"}</text><rect fill="transparent" height="6" style="stroke:#C82930;stroke-width:1;" width="6" x="79.95" y="848.1328"/><text fill="#000000" font-family="sans-serif" font-size="14" lengthAdjust="spacing" textLength="211.0254" x="91.95" y="854.4795">password: String {encrypted}</text><line style="stroke:#181818;stroke-width:0.5;" x1="72.95" x2="443.7508" y1="861.7813" y2="861.7813"/><ellipse cx="82.95" cy="875.4297" fill="#84BE84" rx="3" ry="3" style="stroke:#038048;stroke-width:1;"/><text fill="#000000" font-family="sans-serif" font-size="14" lengthAdjust="spacing" textLength="282.7822" x="91.95" y="878.7764">authenticate(password: String): boolean</text></g><!--class Room--><g id="elem_Room"><rect codeLine="41" fill="#F1F1F1" height="162.0781" id="Room" rx="2.5" ry="2.5" style="stroke:#181818;stroke-width:0.5;" width="504.8232" x="549.95" y="724"/><ellipse cx="777.8636" cy="740" fill="#ADD1B2" rx="11" ry="11" style="stroke:#181818;stroke-width:1;"/><path d="M780.8323,745.6406 Q780.2542,745.9375 779.6136,746.0781 Q778.9729,746.2344 778.2698,746.2344 Q775.7698,746.2344 774.4417,744.5938 Q773.1292,742.9375 773.1292,739.8125 Q773.1292,736.6875 774.4417,735.0313 Q775.7698,733.375 778.2698,733.375 Q778.9729,733.375 779.6136,733.5313 Q780.2698,733.6875 780.8323,733.9844 L780.8323,736.7031 Q780.2073,736.125 779.6136,735.8594 Q779.0198,735.5781 778.3948,735.5781 Q777.0511,735.5781 776.3636,736.6563 Q775.6761,737.7188 775.6761,739.8125 Q775.6761,741.9063 776.3636,742.9844 Q777.0511,744.0469 778.3948,744.0469 Q779.0198,744.0469 779.6136,743.7813 Q780.2073,743.5 780.8323,742.9219 L780.8323,745.6406 Z " fill="#000000"/><text fill="#000000" font-family="sans-serif" font-size="14" lengthAdjust="spacing" textLength="40.4961" x="798.3636" y="744.8467">Room</text><line style="stroke:#181818;stroke-width:0.5;" x1="550.95" x2="1053.7732" y1="756" y2="756"/><rect fill="transparent" height="6" style="stroke:#C82930;stroke-width:1;" width="6" x="557.95" y="766.6484"/><text fill="#000000" font-family="sans-serif" font-size="14" lengthAdjust="spacing" textLength="263.2588" x="569.95" y="772.9951">roomNumber: int {unique, readOnly}</text><rect fill="transparent" height="6" style="stroke:#C82930;stroke-width:1;" width="6" x="557.95" y="782.9453"/><text fill="#000000" font-family="sans-serif" font-size="14" lengthAdjust="spacing" textLength="155.5586" x="569.95" y="789.292">price: float {min: 0.0}</text><rect fill="transparent" height="6" style="stroke:#C82930;stroke-width:1;" width="6" x="557.95" y="799.2422"/><text fill="#000000" font-family="sans-serif" font-size="14" lengthAdjust="spacing" textLength="350.8408" x="569.95" y="805.5889">bedType: String {enum: SINGLE, DOUBLE, SUITE}</text><rect fill="transparent" height="6" style="stroke:#C82930;stroke-width:1;" width="6" x="557.95" y="815.5391"/><text fill="#000000" font-family="sans-serif" font-size="14" lengthAdjust="spacing" textLength="128.7891" x="569.95" y="821.8857">description: String</text><rect fill="transparent" height="6" style="stroke:#C82930;stroke-width:1;" width="6" x="557.95" y="831.8359"/><text fill="#000000" font-family="sans-serif" font-size="14" lengthAdjust="spacing" textLength="237.7539" x="569.95" y="838.1826">available: boolean {default: true}</text><rect fill="transparent" height="6" style="stroke:#C82930;stroke-width:1;" width="6" x="557.95" y="848.1328"/><text fill="#000000" font-family="sans-serif" font-size="14" lengthAdjust="spacing" textLength="478.8232" x="569.95" y="854.4795">status: RoomStatus {enum: AVAILABLE, OCCUPIED, MAINTENANCE}</text><line style="stroke:#181818;stroke-width:0.5;" x1="550.95" x2="1053.7732" y1="861.7813" y2="861.7813"/><ellipse cx="560.95" cy="875.4297" fill="#84BE84" rx="3" ry="3" style="stroke:#038048;stroke-width:1;"/><text fill="#000000" font-family="sans-serif" font-size="14" lengthAdjust="spacing" textLength="151.4365" x="569.95" y="878.7764">isAvailable(): boolean</text></g><!--reverse link Hotel to Gestionnaire--><g id="link_Hotel_Gestionnaire"><path codeLine="52" d="M463.45,181.24 C463.45,205.95 463.45,221.14 463.45,245.85 " fill="transparent" id="Hotel-backto-Gestionnaire" style="stroke:#181818;stroke-width:1;"/><polygon fill="#181818" points="463.45,169.24,459.45,175.24,463.45,181.24,467.45,175.24,463.45,169.24" style="stroke:#181818;stroke-width:1;"/><text fill="#000000" font-family="sans-serif" font-size="13" lengthAdjust="spacing" textLength="59.8584" x="464.45" y="212.0669">manages</text><text fill="#000000" font-family="sans-serif" font-size="13" lengthAdjust="spacing" textLength="8.271" x="455.1166" y="189.2127">1</text><text fill="#000000" font-family="sans-serif" font-size="13" lengthAdjust="spacing" textLength="8.271" x="455.0951" y="235.0239">1</text></g><!--reverse link Hotel to Room--><g id="link_Hotel_Room"><path codeLine="53" d="M597.9445,113.377 C677.3245,133.997 763.86,170.68 817.45,246 C918.72,388.33 869.95,606.86 832.21,723.73 " fill="transparent" id="Hotel-backto-Room" style="stroke:#181818;stroke-width:1;"/><polygon fill="#181818" points="586.33,110.36,591.1316,115.74,597.9445,113.377,593.1429,107.997,586.33,110.36" style="stroke:#181818;stroke-width:1;"/><polygon fill="#000000" points="881.6583,441.8984,882.1557,451.396,887.6432,449.2898,881.6583,441.8984" style="stroke:#000000;stroke-width:1;"/><text fill="#000000" font-family="sans-serif" font-size="13" lengthAdjust="spacing" textLength="55.0278" x="892.45" y="451.0669">contains</text><text fill="#000000" font-family="sans-serif" font-size="13" lengthAdjust="spacing" textLength="8.271" x="593.6801" y="108.2876">1</text><text fill="#000000" font-family="sans-serif" font-size="13" lengthAdjust="spacing" textLength="6.5" x="828.6234" y="712.8933">*</text></g><!--reverse link Hotel to User--><g id="link_Hotel_User"><path codeLine="54" d="M328.9555,113.377 C249.5755,133.997 163.05,170.68 109.45,246 C6,391.39 18.14,483.42 89.45,647 C102.01,675.82 122.76,701.72 145.5,723.8 " fill="transparent" id="Hotel-backto-User" style="stroke:#181818;stroke-width:1;"/><polygon fill="transparent" points="340.57,110.36,333.7571,107.997,328.9555,113.377,335.7684,115.74,340.57,110.36" style="stroke:#181818;stroke-width:1;"/><text fill="#000000" font-family="sans-serif" font-size="13" lengthAdjust="spacing" textLength="55.0278" x="35.45" y="451.0669">contains</text><text fill="#000000" font-family="sans-serif" font-size="13" lengthAdjust="spacing" textLength="8.271" x="324.8539" y="108.3341">1</text><text fill="#000000" font-family="sans-serif" font-size="13" lengthAdjust="spacing" textLength="6.5" x="129.2043" y="712.9695">*</text></g><!--link Gestionnaire to Booking--><g id="link_Gestionnaire_Booking"><path codeLine="55" d="M463.45,408.24 C463.45,432.95 463.45,460.14 463.45,484.85 " fill="transparent" id="Gestionnaire-Booking" style="stroke:#181818;stroke-width:1;"/><text fill="#000000" font-family="sans-serif" font-size="13" lengthAdjust="spacing" textLength="48.3247" x="464.45" y="451.0669">creates</text><text fill="#000000" font-family="sans-serif" font-size="13" lengthAdjust="spacing" textLength="8.271" x="455.0951" y="428.2127">1</text><text fill="#000000" font-family="sans-serif" font-size="13" lengthAdjust="spacing" textLength="6.5" x="457.2164" y="474.0239">*</text></g><!--link Booking to User--><g id="link_Booking_User"><path codeLine="56" d="M394.05,647.24 C372.67,671.95 349.15,699.14 327.78,723.85 " fill="transparent" id="Booking-User" style="stroke:#181818;stroke-width:1;"/><polygon fill="#000000" points="369.1789,689.3479,377.3191,684.4298,372.8737,680.5844,369.1789,689.3479" style="stroke:#000000;stroke-width:1;"/><text fill="#000000" font-family="sans-serif" font-size="13" lengthAdjust="spacing" textLength="68.2627" x="381.45" y="690.0669">belongs to</text><text fill="#000000" font-family="sans-serif" font-size="13" lengthAdjust="spacing" textLength="8.271" x="379.5362" y="667.2127">1</text><text fill="#000000" font-family="sans-serif" font-size="13" lengthAdjust="spacing" textLength="8.271" x="325.6194" y="713.0239">1</text></g><!--link Booking to Room--><g id="link_Booking_Room"><path codeLine="57" d="M578.22,647.24 C613.56,671.95 652.46,699.14 687.8,723.85 " fill="transparent" id="Booking-Room" style="stroke:#181818;stroke-width:1;"/><polygon fill="#000000" points="652.5478,688.4313,646.8187,680.84,643.4508,685.6573,652.5478,688.4313" style="stroke:#000000;stroke-width:1;"/><text fill="#000000" font-family="sans-serif" font-size="13" lengthAdjust="spacing" textLength="38.4604" x="657.45" y="690.0669">books</text><text fill="#000000" font-family="sans-serif" font-size="13" lengthAdjust="spacing" textLength="8.271" x="580.1089" y="667.2127">1</text><text fill="#000000" font-family="sans-serif" font-size="13" lengthAdjust="spacing" textLength="8.271" x="669.2527" y="713.0239">1</text></g><!--SRC=[ZLHHRzem47xdLvpGfB4MglPX3uig9Wff6us6gi1UnZQPv6YjEJQpdKuewd_VEN48C5hjAPUxptVtVJvV8fWnSAii2YXQ03sGAWjWQZMNZr18PK7cGhoK8PPgD0PV2wDLNA09W4iBXMRoaQ0NPsSVgx1MAgFWc1jx-K1s7mgbKzIOLl7SeAxZSxBxv3sbcga3Tzpf09pv8O1dnTCwwg0TTpO0PzRHbrOhARdTeB5SIScuHa_noT4DQjOQMJgHObDriLJg5t6h6xcgVl-droCCIwz9IB24IOaQ2ako68xIlfJz9rJSeY-omw8B3Tykf8GPuJAtb5ibJ8pel_9USxdZ8-u-LPMSoGH5dTmJsqB-4ShxlKOyzVUOI_uxftBxCZMj7av1q_XXv1YDOvXzKWsY2ucIXXIale8Q2VqcRvN2M6Ppi-KvBN-XG9bJN_TXF8hYcouC9_5rz70NZiWSnCDmF2xDst3u9HpzZEB6dind_hAOI791nMRACj4X0LT2CTieMCcnrITwMy8LryR6B7lrFL7ED-EOCIwQO5rbfNJ6IA0oN27NJqfYd6TBTsarVisiHKrIjtyi5gUVlvttFYqMlU-dxzh-457wGrFVd42PwCtQLe-07bzkdsYIUKAIT0xHf0vDd40c6tsgeTXEITtG6ngjDK_Gwmn5vWRZ_EpSlrHCPvirxhRdRdXArpiEkp2QpA_STpgFPg4VBZI9vckt3kfJrLvx9gNOKk2sPoXINB5Sa8nMvxW_M8x6_bGDlWwYyQ0iDnaEv_UHcwMxGHJFmjWDLwKNDuEwK6TVdlVGw_LWO8nAE7Fj6UTeLGkgVT664mgxxzuo2o1ZaZsYEGIUj2kf0_TWB3qN0vSx6EKnvRWscDPUSWVqk7en17vTcLRjgK4NssHB58gs9rW5_MCmtvTRHWRwVm40]--></g></svg>