<svg xmlns="http://www.w3.org/2000/svg" xmlns:xlink="http://www.w3.org/1999/xlink" contentStyleType="text/css" data-diagram-type="CLASS" height="779px" preserveAspectRatio="none" style="width:544px;height:779px;background:#FFFFFF;" version="1.1" viewBox="0 0 544 779" width="544px" zoomAndPan="magnify"><defs/><g><!--class Hotel--><g class="entity" data-entity="Hotel" data-source-line="1" data-uid="ent0002" id="entity_Hotel"><rect fill="#F1F1F1" height="129.4844" rx="2.5" ry="2.5" style="stroke:#181818;stroke-width:0.5;" width="167.415" x="192.43" y="7"/><ellipse cx="253.345" cy="23" fill="#ADD1B2" rx="11" ry="11" style="stroke:#181818;stroke-width:1;"/><path d="M256.3138,28.6406 Q255.7357,28.9375 255.095,29.0781 Q254.4544,29.2344 253.7513,29.2344 Q251.2513,29.2344 249.9232,27.5938 Q248.6107,25.9375 248.6107,22.8125 Q248.6107,19.6875 249.9232,18.0313 Q251.2513,16.375 253.7513,16.375 Q254.4544,16.375 255.095,16.5313 Q255.7513,16.6875 256.3138,16.9844 L256.3138,19.7031 Q255.6888,19.125 255.095,18.8594 Q254.5013,18.5781 253.8763,18.5781 Q252.5325,18.5781 251.845,19.6563 Q251.1575,20.7188 251.1575,22.8125 Q251.1575,24.9063 251.845,25.9844 Q252.5325,27.0469 253.8763,27.0469 Q254.5013,27.0469 255.095,26.7813 Q255.6888,26.5 256.3138,25.9219 L256.3138,28.6406 Z " fill="#000000"/><text fill="#000000" font-family="sans-serif" font-size="14" lengthAdjust="spacing" textLength="37.085" x="273.845" y="27.8467">Hotel</text><line style="stroke:#181818;stroke-width:0.5;" x1="193.43" x2="358.845" y1="39" y2="39"/><rect fill="none" height="6" style="stroke:#C82930;stroke-width:1;" width="6" x="200.43" y="49.6484"/><text fill="#000000" font-family="sans-serif" font-size="14" lengthAdjust="spacing" textLength="82.0244" x="212.43" y="55.9951">nom: String</text><rect fill="none" height="6" style="stroke:#C82930;stroke-width:1;" width="6" x="200.43" y="65.9453"/><text fill="#000000" font-family="sans-serif" font-size="14" lengthAdjust="spacing" textLength="105.9844" x="212.43" y="72.292">adresse: String</text><rect fill="none" height="6" style="stroke:#C82930;stroke-width:1;" width="6" x="200.43" y="82.2422"/><text fill="#000000" font-family="sans-serif" font-size="14" lengthAdjust="spacing" textLength="73.7734" x="212.43" y="88.5889">etoiles: int</text><rect fill="none" height="6" style="stroke:#C82930;stroke-width:1;" width="6" x="200.43" y="98.5391"/><text fill="#000000" font-family="sans-serif" font-size="14" lengthAdjust="spacing" textLength="141.415" x="212.43" y="104.8857">rooms: List&lt;Room&gt;</text><rect fill="none" height="6" style="stroke:#C82930;stroke-width:1;" width="6" x="200.43" y="114.8359"/><text fill="#000000" font-family="sans-serif" font-size="14" lengthAdjust="spacing" textLength="126.8408" x="212.43" y="121.1826">users: List&lt;User&gt;</text><line style="stroke:#181818;stroke-width:0.5;" x1="193.43" x2="358.845" y1="128.4844" y2="128.4844"/></g><!--class Gestionnaire--><g class="entity" data-entity="Gestionnaire" data-source-line="9" data-uid="ent0003" id="entity_Gestionnaire"><rect fill="#F1F1F1" height="129.4844" rx="2.5" ry="2.5" style="stroke:#181818;stroke-width:0.5;" width="197.9443" x="177.17" y="213.48"/><ellipse cx="227.2501" cy="229.48" fill="#ADD1B2" rx="11" ry="11" style="stroke:#181818;stroke-width:1;"/><path d="M230.2188,235.1206 Q229.6407,235.4175 229.0001,235.5581 Q228.3595,235.7144 227.6563,235.7144 Q225.1563,235.7144 223.8282,234.0738 Q222.5157,232.4175 222.5157,229.2925 Q222.5157,226.1675 223.8282,224.5113 Q225.1563,222.855 227.6563,222.855 Q228.3595,222.855 229.0001,223.0113 Q229.6563,223.1675 230.2188,223.4644 L230.2188,226.1831 Q229.5938,225.605 229.0001,225.3394 Q228.4063,225.0581 227.7813,225.0581 Q226.4376,225.0581 225.7501,226.1363 Q225.0626,227.1988 225.0626,229.2925 Q225.0626,231.3863 225.7501,232.4644 Q226.4376,233.5269 227.7813,233.5269 Q228.4063,233.5269 229.0001,233.2613 Q229.5938,232.98 230.2188,232.4019 L230.2188,235.1206 Z " fill="#000000"/><text fill="#000000" font-family="sans-serif" font-size="14" lengthAdjust="spacing" textLength="89.2842" x="247.7501" y="234.3267">Gestionnaire</text><line style="stroke:#181818;stroke-width:0.5;" x1="178.17" x2="374.1143" y1="245.48" y2="245.48"/><rect fill="none" height="6" style="stroke:#C82930;stroke-width:1;" width="6" x="185.17" y="256.1284"/><text fill="#000000" font-family="sans-serif" font-size="14" lengthAdjust="spacing" textLength="76.9658" x="197.17" y="262.4751">Hotel hotel</text><rect fill="none" height="6" style="stroke:#C82930;stroke-width:1;" width="6" x="185.17" y="272.4253"/><text fill="#000000" font-family="sans-serif" font-size="14" lengthAdjust="spacing" textLength="171.9443" x="197.17" y="278.772">List&lt;Booking&gt; bookings</text><rect fill="none" height="6" style="stroke:#C82930;stroke-width:1;" width="6" x="185.17" y="288.7222"/><text fill="#000000" font-family="sans-serif" font-size="14" lengthAdjust="spacing" textLength="122.124" x="197.17" y="295.0689">List&lt;User&gt; users</text><rect fill="none" height="6" style="stroke:#C82930;stroke-width:1;" width="6" x="185.17" y="305.0191"/><text fill="#000000" font-family="sans-serif" font-size="14" lengthAdjust="spacing" textLength="136.6982" x="197.17" y="311.3657">List&lt;Room&gt; rooms</text><rect fill="none" height="6" style="stroke:#C82930;stroke-width:1;" width="6" x="185.17" y="321.3159"/><text fill="#000000" font-family="sans-serif" font-size="14" lengthAdjust="spacing" textLength="76.7197" x="197.17" y="327.6626">Scanner sc</text><line style="stroke:#181818;stroke-width:0.5;" x1="178.17" x2="374.1143" y1="334.9644" y2="334.9644"/></g><!--class Booking--><g class="entity" data-entity="Booking" data-source-line="17" data-uid="ent0004" id="entity_Booking"><rect fill="#F1F1F1" height="129.4844" rx="2.5" ry="2.5" style="stroke:#181818;stroke-width:0.5;" width="174.6543" x="188.81" y="419.96"/><ellipse cx="243.6411" cy="435.96" fill="#ADD1B2" rx="11" ry="11" style="stroke:#181818;stroke-width:1;"/><path d="M246.6098,441.6006 Q246.0317,441.8975 245.3911,442.0381 Q244.7504,442.1944 244.0473,442.1944 Q241.5473,442.1944 240.2192,440.5538 Q238.9067,438.8975 238.9067,435.7725 Q238.9067,432.6475 240.2192,430.9913 Q241.5473,429.335 244.0473,429.335 Q244.7504,429.335 245.3911,429.4913 Q246.0473,429.6475 246.6098,429.9444 L246.6098,432.6631 Q245.9848,432.085 245.3911,431.8194 Q244.7973,431.5381 244.1723,431.5381 Q242.8286,431.5381 242.1411,432.6163 Q241.4536,433.6788 241.4536,435.7725 Q241.4536,437.8663 242.1411,438.9444 Q242.8286,440.0069 244.1723,440.0069 Q244.7973,440.0069 245.3911,439.7413 Q245.9848,439.46 246.6098,438.8819 L246.6098,441.6006 Z " fill="#000000"/><text fill="#000000" font-family="sans-serif" font-size="14" lengthAdjust="spacing" textLength="56.4922" x="264.1411" y="440.8067">Booking</text><line style="stroke:#181818;stroke-width:0.5;" x1="189.81" x2="362.4643" y1="451.96" y2="451.96"/><rect fill="none" height="6" style="stroke:#C82930;stroke-width:1;" width="6" x="196.81" y="462.6084"/><text fill="#000000" font-family="sans-serif" font-size="14" lengthAdjust="spacing" textLength="35.4785" x="208.81" y="468.9551">int id</text><rect fill="none" height="6" style="stroke:#C82930;stroke-width:1;" width="6" x="196.81" y="478.9053"/><text fill="#000000" font-family="sans-serif" font-size="14" lengthAdjust="spacing" textLength="66.8965" x="208.81" y="485.252">User user</text><rect fill="none" height="6" style="stroke:#C82930;stroke-width:1;" width="6" x="196.81" y="495.2022"/><text fill="#000000" font-family="sans-serif" font-size="14" lengthAdjust="spacing" textLength="81.4707" x="208.81" y="501.5489">Room room</text><rect fill="none" height="6" style="stroke:#C82930;stroke-width:1;" width="6" x="196.81" y="511.4991"/><text fill="#000000" font-family="sans-serif" font-size="14" lengthAdjust="spacing" textLength="148.6543" x="208.81" y="517.8457">LocalDate dateDebut</text><rect fill="none" height="6" style="stroke:#C82930;stroke-width:1;" width="6" x="196.81" y="527.7959"/><text fill="#000000" font-family="sans-serif" font-size="14" lengthAdjust="spacing" textLength="126.8271" x="208.81" y="534.1426">LocalDate dateFin</text><line style="stroke:#181818;stroke-width:0.5;" x1="189.81" x2="362.4643" y1="541.4444" y2="541.4444"/></g><!--class User--><g class="entity" data-entity="User" data-source-line="25" data-uid="ent0005" id="entity_User"><rect fill="#F1F1F1" height="145.7813" rx="2.5" ry="2.5" style="stroke:#181818;stroke-width:0.5;" width="172.2822" x="7" y="626.45"/><ellipse cx="72.936" cy="642.45" fill="#ADD1B2" rx="11" ry="11" style="stroke:#181818;stroke-width:1;"/><path d="M75.9048,648.0906 Q75.3267,648.3875 74.686,648.5281 Q74.0454,648.6844 73.3423,648.6844 Q70.8423,648.6844 69.5142,647.0438 Q68.2017,645.3875 68.2017,642.2625 Q68.2017,639.1375 69.5142,637.4813 Q70.8423,635.825 73.3423,635.825 Q74.0454,635.825 74.686,635.9813 Q75.3423,636.1375 75.9048,636.4344 L75.9048,639.1531 Q75.2798,638.575 74.686,638.3094 Q74.0923,638.0281 73.4673,638.0281 Q72.1235,638.0281 71.436,639.1063 Q70.7485,640.1688 70.7485,642.2625 Q70.7485,644.3563 71.436,645.4344 Q72.1235,646.4969 73.4673,646.4969 Q74.0923,646.4969 74.686,646.2313 Q75.2798,645.95 75.9048,645.3719 L75.9048,648.0906 Z " fill="#000000"/><text fill="#000000" font-family="sans-serif" font-size="14" lengthAdjust="spacing" textLength="31.9102" x="93.436" y="647.2967">User</text><line style="stroke:#181818;stroke-width:0.5;" x1="8" x2="178.2822" y1="658.45" y2="658.45"/><rect fill="none" height="6" style="stroke:#C82930;stroke-width:1;" width="6" x="15" y="669.0984"/><text fill="#000000" font-family="sans-serif" font-size="14" lengthAdjust="spacing" textLength="66.2539" x="27" y="675.4451">int userId</text><rect fill="none" height="6" style="stroke:#C82930;stroke-width:1;" width="6" x="15" y="685.3953"/><text fill="#000000" font-family="sans-serif" font-size="14" lengthAdjust="spacing" textLength="114.8916" x="27" y="691.742">String firstName</text><rect fill="none" height="6" style="stroke:#C82930;stroke-width:1;" width="6" x="15" y="701.6922"/><text fill="#000000" font-family="sans-serif" font-size="14" lengthAdjust="spacing" textLength="112.7861" x="27" y="708.0389">String lastName</text><rect fill="none" height="6" style="stroke:#C82930;stroke-width:1;" width="6" x="15" y="717.9891"/><text fill="#000000" font-family="sans-serif" font-size="14" lengthAdjust="spacing" textLength="84.8408" x="27" y="724.3357">String email</text><rect fill="none" height="6" style="stroke:#C82930;stroke-width:1;" width="6" x="15" y="734.2859"/><text fill="#000000" font-family="sans-serif" font-size="14" lengthAdjust="spacing" textLength="146.2822" x="27" y="740.6326">String phoneNumber</text><rect fill="none" height="6" style="stroke:#C82930;stroke-width:1;" width="6" x="15" y="750.5828"/><text fill="#000000" font-family="sans-serif" font-size="14" lengthAdjust="spacing" textLength="112.9434" x="27" y="756.9295">String password</text><line style="stroke:#181818;stroke-width:0.5;" x1="8" x2="178.2822" y1="764.2313" y2="764.2313"/></g><!--class Room--><g class="entity" data-entity="Room" data-source-line="34" data-uid="ent0006" id="entity_Room"><rect fill="#F1F1F1" height="129.4844" rx="2.5" ry="2.5" style="stroke:#181818;stroke-width:0.5;" width="150.0723" x="358.1" y="634.6"/><ellipse cx="408.6381" cy="650.6" fill="#ADD1B2" rx="11" ry="11" style="stroke:#181818;stroke-width:1;"/><path d="M411.6068,656.2406 Q411.0287,656.5375 410.3881,656.6781 Q409.7475,656.8344 409.0443,656.8344 Q406.5443,656.8344 405.2162,655.1938 Q403.9037,653.5375 403.9037,650.4125 Q403.9037,647.2875 405.2162,645.6313 Q406.5443,643.975 409.0443,643.975 Q409.7475,643.975 410.3881,644.1313 Q411.0443,644.2875 411.6068,644.5844 L411.6068,647.3031 Q410.9818,646.725 410.3881,646.4594 Q409.7943,646.1781 409.1693,646.1781 Q407.8256,646.1781 407.1381,647.2563 Q406.4506,648.3188 406.4506,650.4125 Q406.4506,652.5063 407.1381,653.5844 Q407.8256,654.6469 409.1693,654.6469 Q409.7943,654.6469 410.3881,654.3813 Q410.9818,654.1 411.6068,653.5219 L411.6068,656.2406 Z " fill="#000000"/><text fill="#000000" font-family="sans-serif" font-size="14" lengthAdjust="spacing" textLength="40.4961" x="429.1381" y="655.4467">Room</text><line style="stroke:#181818;stroke-width:0.5;" x1="359.1" x2="507.1723" y1="666.6" y2="666.6"/><rect fill="none" height="6" style="stroke:#C82930;stroke-width:1;" width="6" x="366.1" y="677.2484"/><text fill="#000000" font-family="sans-serif" font-size="14" lengthAdjust="spacing" textLength="115.4658" x="378.1" y="683.5951">int roomNumber</text><rect fill="none" height="6" style="stroke:#C82930;stroke-width:1;" width="6" x="366.1" y="693.5453"/><text fill="#000000" font-family="sans-serif" font-size="14" lengthAdjust="spacing" textLength="57.5449" x="378.1" y="699.892">int price</text><rect fill="none" height="6" style="stroke:#C82930;stroke-width:1;" width="6" x="366.1" y="709.8422"/><text fill="#000000" font-family="sans-serif" font-size="14" lengthAdjust="spacing" textLength="106.9551" x="378.1" y="716.1889">String bedType</text><rect fill="none" height="6" style="stroke:#C82930;stroke-width:1;" width="6" x="366.1" y="726.1391"/><text fill="#000000" font-family="sans-serif" font-size="14" lengthAdjust="spacing" textLength="124.0723" x="378.1" y="732.4857">String description</text><rect fill="none" height="6" style="stroke:#C82930;stroke-width:1;" width="6" x="366.1" y="742.4359"/><text fill="#000000" font-family="sans-serif" font-size="14" lengthAdjust="spacing" textLength="123.6143" x="378.1" y="748.7826">boolean available</text><line style="stroke:#181818;stroke-width:0.5;" x1="359.1" x2="507.1723" y1="756.0844" y2="756.0844"/></g><!--link Hotel to Gestionnaire--><g class="link" data-entity-1="Hotel" data-entity-2="Gestionnaire" data-source-line="42" data-uid="lnk7" id="link_Hotel_Gestionnaire"><path codeLine="42" d="M276.14,136.88 C276.14,161.24 276.14,188.97 276.14,213.31" fill="none" id="Hotel-Gestionnaire" style="stroke:#181818;stroke-width:1;"/><text fill="#000000" font-family="sans-serif" font-size="13" lengthAdjust="spacing" textLength="59.8584" x="277.14" y="179.5469">manages</text><text fill="#000000" font-family="sans-serif" font-size="13" lengthAdjust="spacing" textLength="8.271" x="267.7417" y="156.4445">1</text><text fill="#000000" font-family="sans-serif" font-size="13" lengthAdjust="spacing" textLength="8.271" x="267.7171" y="202.4641">1</text></g><!--link Hotel to Room--><g class="link" data-entity-1="Hotel" data-entity-2="Room" data-source-line="43" data-uid="lnk8" id="link_Hotel_Room"><path codeLine="43" d="M334.72,136.65 C354.36,159.86 375.48,186.93 392.14,213.48 C445.82,299.05 465.53,321.29 487.14,419.96 C499.45,476.18 497.1,492.77 487.14,549.45 C482.1,578.16 471.97,608.62 461.84,634.46" fill="none" id="Hotel-Room" style="stroke:#181818;stroke-width:1;"/><text fill="#000000" font-family="sans-serif" font-size="13" lengthAdjust="spacing" textLength="55.0278" x="481.14" y="386.0269">contains</text><text fill="#000000" font-family="sans-serif" font-size="13" lengthAdjust="spacing" textLength="8.271" x="332.7048" y="156.6438">1</text><text fill="#000000" font-family="sans-serif" font-size="13" lengthAdjust="spacing" textLength="6.5" x="458.6787" y="623.6174">*</text></g><!--link Hotel to User--><g class="link" data-entity-1="Hotel" data-entity-2="User" data-source-line="44" data-uid="lnk9" id="link_Hotel_User"><path codeLine="44" d="M210.88,136.86 C158.81,193.3 90.55,280.68 65.14,372.96 C41.78,457.83 57.05,559.43 72.69,626.25" fill="none" id="Hotel-User" style="stroke:#181818;stroke-width:1;"/><text fill="#000000" font-family="sans-serif" font-size="13" lengthAdjust="spacing" textLength="55.0278" x="66.14" y="386.0269">contains</text><text fill="#000000" font-family="sans-serif" font-size="13" lengthAdjust="spacing" textLength="8.271" x="195.7518" y="156.4225">1</text><text fill="#000000" font-family="sans-serif" font-size="13" lengthAdjust="spacing" textLength="6.5" x="64.4061" y="615.3903">*</text></g><!--link Gestionnaire to Booking--><g class="link" data-entity-1="Gestionnaire" data-entity-2="Booking" data-source-line="45" data-uid="lnk10" id="link_Gestionnaire_Booking"><path codeLine="45" d="M276.14,343.36 C276.14,367.72 276.14,395.45 276.14,419.8" fill="none" id="Gestionnaire-Booking" style="stroke:#181818;stroke-width:1;"/><text fill="#000000" font-family="sans-serif" font-size="13" lengthAdjust="spacing" textLength="48.3247" x="277.14" y="386.0269">creates</text><text fill="#000000" font-family="sans-serif" font-size="13" lengthAdjust="spacing" textLength="8.271" x="267.7412" y="362.9245">1</text><text fill="#000000" font-family="sans-serif" font-size="13" lengthAdjust="spacing" textLength="6.5" x="269.8395" y="408.9552">*</text></g><!--link Gestionnaire to Room--><g class="link" data-entity-1="Gestionnaire" data-entity-2="Room" data-source-line="46" data-uid="lnk11" id="link_Gestionnaire_Room"><path codeLine="46" d="M333.61,343.31 C351.33,366.11 369.28,392.88 381.14,419.96 C411.57,489.43 424.21,576.25 429.45,634.29" fill="none" id="Gestionnaire-Room" style="stroke:#181818;stroke-width:1;"/><text fill="#000000" font-family="sans-serif" font-size="13" lengthAdjust="spacing" textLength="59.8584" x="419.14" y="489.2769">manages</text><text fill="#000000" font-family="sans-serif" font-size="13" lengthAdjust="spacing" textLength="8.271" x="331.1378" y="362.8694">1</text><text fill="#000000" font-family="sans-serif" font-size="13" lengthAdjust="spacing" textLength="6.5" x="422.746" y="623.4288">*</text></g><!--link Gestionnaire to User--><g class="link" data-entity-1="Gestionnaire" data-entity-2="User" data-source-line="47" data-uid="lnk12" id="link_Gestionnaire_User"><path codeLine="47" d="M176.91,341.3 C150.68,362.84 125.45,389.39 110.14,419.96 C78,484.15 77.38,567.35 82.56,626.02" fill="none" id="Gestionnaire-User" style="stroke:#181818;stroke-width:1;"/><text fill="#000000" font-family="sans-serif" font-size="13" lengthAdjust="spacing" textLength="59.8584" x="111.14" y="489.2769">manages</text><text fill="#000000" font-family="sans-serif" font-size="13" lengthAdjust="spacing" textLength="8.271" x="161.0167" y="342.6272">1</text><text fill="#000000" font-family="sans-serif" font-size="13" lengthAdjust="spacing" textLength="6.5" x="75.2894" y="615.39">*</text></g><!--link Booking to User--><g class="link" data-entity-1="Booking" data-entity-2="User" data-source-line="48" data-uid="lnk13" id="link_Booking_User"><path codeLine="48" d="M220.99,549.79 C200.25,573.88 176.55,601.42 155.23,626.2" fill="none" id="Booking-User" style="stroke:#181818;stroke-width:1;"/><text fill="#000000" font-family="sans-serif" font-size="13" lengthAdjust="spacing" textLength="68.2627" x="191.14" y="592.5169">belongs to</text><text fill="#000000" font-family="sans-serif" font-size="13" lengthAdjust="spacing" textLength="8.271" x="206.9044" y="569.3494">1</text><text fill="#000000" font-family="sans-serif" font-size="13" lengthAdjust="spacing" textLength="8.271" x="152.9615" y="615.3354">1</text></g><!--link Booking to Room--><g class="link" data-entity-1="Booking" data-entity-2="Room" data-source-line="49" data-uid="lnk14" id="link_Booking_Room"><path codeLine="49" d="M323.46,549.79 C343.23,576.57 366.16,607.62 385.92,634.39" fill="none" id="Booking-Room" style="stroke:#181818;stroke-width:1;"/><text fill="#000000" font-family="sans-serif" font-size="13" lengthAdjust="spacing" textLength="38.4604" x="356.14" y="592.5169">books</text><text fill="#000000" font-family="sans-serif" font-size="13" lengthAdjust="spacing" textLength="8.271" x="319.9416" y="569.3494">1</text><text fill="#000000" font-family="sans-serif" font-size="13" lengthAdjust="spacing" textLength="8.271" x="372.3331" y="623.5397">1</text></g><!--SRC=[TLBBJiCm4BpdArOz8lN0DK8ze8g7X7gWy06EixGMZZVokY24-7VijICdq5uSxsGyC-krjeeP7YYWXUy6O0sEXXRsmHjta5hr7fbnWM4WOv5RC2u8u8c6M3uP3ZVFSRyHzCJe9_GrxZVDJzDeSRn73eQSKyPZCSuXZccLMexT4hr7rmrqUSFrboXcZmgAUOuZu5uhvz03w-fTD8jjR05CBzkaA89I9IbHokgabTsgWD37POlTAPp1xuohFY9NJPBmOpRALmblndFOgG7dO3pw3yD16Ji7nYCvt9s6hcITu6ZxIRwl6QI9cY6rCpkMeD4RlJ3hi7_v6XTGZwoz6TF418x3iAWSg8-OItKMas6Ut-fw1UkrV1OpRc5GJXsG__2kLZbZ2vfSKCQT8SX5pWWBuHbl6coaUepJkCmibbEaIxHYFD4c_LcFXT6XfVWu8T0vKd5BJvX_0G00]--></g></svg>