<svg xmlns="http://www.w3.org/2000/svg" xmlns:xlink="http://www.w3.org/1999/xlink" contentStyleType="text/css" data-diagram-type="CLASS" height="893px" preserveAspectRatio="none" style="width:1129px;height:893px;background:#FFFFFF;" version="1.1" viewBox="0 0 1129 893" width="1129px" zoomAndPan="magnify"><defs/><g><!--class BookingStatus--><g class="entity" data-entity="BookingStatus" data-source-line="2" data-uid="ent0002" id="entity_BookingStatus"><rect fill="#F1F1F1" height="129.4844" rx="2.5" ry="2.5" style="stroke:#181818;stroke-width:0.5;" width="133.1035" x="129.16" y="262.37"/><ellipse cx="144.16" cy="278.37" fill="#EB937F" rx="11" ry="11" style="stroke:#181818;stroke-width:1;"/><path d="M148.2694,284.37 L140.5506,284.37 L140.5506,271.9794 L148.2694,271.9794 L148.2694,274.1356 L143.0038,274.1356 L143.0038,276.8075 L147.7694,276.8075 L147.7694,278.9637 L143.0038,278.9637 L143.0038,282.2137 L148.2694,282.2137 L148.2694,284.37 Z " fill="#000000"/><text fill="#000000" font-family="sans-serif" font-size="14" lengthAdjust="spacing" textLength="101.1035" x="158.16" y="283.2167">BookingStatus</text><line style="stroke:#181818;stroke-width:0.5;" x1="130.16" x2="261.2635" y1="294.37" y2="294.37"/><text fill="#000000" font-family="sans-serif" font-size="14" lengthAdjust="spacing" textLength="63.9912" x="135.16" y="311.3651">PENDING</text><text fill="#000000" font-family="sans-serif" font-size="14" lengthAdjust="spacing" textLength="84.8818" x="135.16" y="327.662">CONFIRMED</text><text fill="#000000" font-family="sans-serif" font-size="14" lengthAdjust="spacing" textLength="83.6719" x="135.16" y="343.9589">CANCELLED</text><text fill="#000000" font-family="sans-serif" font-size="14" lengthAdjust="spacing" textLength="89.332" x="135.16" y="360.2557">CHECKED_IN</text><text fill="#000000" font-family="sans-serif" font-size="14" lengthAdjust="spacing" textLength="104.5488" x="135.16" y="376.5526">CHECKED_OUT</text><line style="stroke:#181818;stroke-width:0.5;" x1="130.16" x2="261.2635" y1="383.8544" y2="383.8544"/></g><!--class RoomStatus--><g class="entity" data-entity="RoomStatus" data-source-line="10" data-uid="ent0003" id="entity_RoomStatus"><rect fill="#F1F1F1" height="96.8906" rx="2.5" ry="2.5" style="stroke:#181818;stroke-width:0.5;" width="117.1074" x="705.16" y="517.75"/><ellipse cx="720.16" cy="533.75" fill="#EB937F" rx="11" ry="11" style="stroke:#181818;stroke-width:1;"/><path d="M724.2694,539.75 L716.5506,539.75 L716.5506,527.3594 L724.2694,527.3594 L724.2694,529.5156 L719.0038,529.5156 L719.0038,532.1875 L723.7694,532.1875 L723.7694,534.3438 L719.0038,534.3438 L719.0038,537.5938 L724.2694,537.5938 L724.2694,539.75 Z " fill="#000000"/><text fill="#000000" font-family="sans-serif" font-size="14" lengthAdjust="spacing" textLength="85.1074" x="734.16" y="538.5967">RoomStatus</text><line style="stroke:#181818;stroke-width:0.5;" x1="706.16" x2="821.2674" y1="549.75" y2="549.75"/><text fill="#000000" font-family="sans-serif" font-size="14" lengthAdjust="spacing" textLength="76.4873" x="711.16" y="566.7451">AVAILABLE</text><text fill="#000000" font-family="sans-serif" font-size="14" lengthAdjust="spacing" textLength="73.0146" x="711.16" y="583.042">OCCUPIED</text><text fill="#000000" font-family="sans-serif" font-size="14" lengthAdjust="spacing" textLength="102.7988" x="711.16" y="599.3389">MAINTENANCE</text><line style="stroke:#181818;stroke-width:0.5;" x1="706.16" x2="821.2674" y1="606.6406" y2="606.6406"/></g><!--class BedType--><g class="entity" data-entity="BedType" data-source-line="16" data-uid="ent0004" id="entity_BedType"><rect fill="#F1F1F1" height="96.8906" rx="2.5" ry="2.5" style="stroke:#181818;stroke-width:0.5;" width="93.4414" x="856.99" y="517.75"/><ellipse cx="871.99" cy="533.75" fill="#EB937F" rx="11" ry="11" style="stroke:#181818;stroke-width:1;"/><path d="M876.0994,539.75 L868.3806,539.75 L868.3806,527.3594 L876.0994,527.3594 L876.0994,529.5156 L870.8338,529.5156 L870.8338,532.1875 L875.5994,532.1875 L875.5994,534.3438 L870.8338,534.3438 L870.8338,537.5938 L876.0994,537.5938 L876.0994,539.75 Z " fill="#000000"/><text fill="#000000" font-family="sans-serif" font-size="14" lengthAdjust="spacing" textLength="61.4414" x="885.99" y="538.5967">BedType</text><line style="stroke:#181818;stroke-width:0.5;" x1="857.99" x2="949.4314" y1="549.75" y2="549.75"/><text fill="#000000" font-family="sans-serif" font-size="14" lengthAdjust="spacing" textLength="50.9824" x="862.99" y="566.7451">SINGLE</text><text fill="#000000" font-family="sans-serif" font-size="14" lengthAdjust="spacing" textLength="58.2969" x="862.99" y="583.042">DOUBLE</text><text fill="#000000" font-family="sans-serif" font-size="14" lengthAdjust="spacing" textLength="40.6602" x="862.99" y="599.3389">SUITE</text><line style="stroke:#181818;stroke-width:0.5;" x1="857.99" x2="949.4314" y1="606.6406" y2="606.6406"/></g><!--class Hotel--><g class="entity" data-entity="Hotel" data-source-line="23" data-uid="ent0005" id="entity_Hotel"><rect fill="#F1F1F1" height="162.0781" rx="2.5" ry="2.5" style="stroke:#181818;stroke-width:0.5;" width="244.7568" x="511.33" y="7"/><ellipse cx="610.9159" cy="23" fill="#ADD1B2" rx="11" ry="11" style="stroke:#181818;stroke-width:1;"/><path d="M613.8847,28.6406 Q613.3066,28.9375 612.6659,29.0781 Q612.0253,29.2344 611.3222,29.2344 Q608.8222,29.2344 607.4941,27.5938 Q606.1816,25.9375 606.1816,22.8125 Q606.1816,19.6875 607.4941,18.0313 Q608.8222,16.375 611.3222,16.375 Q612.0253,16.375 612.6659,16.5313 Q613.3222,16.6875 613.8847,16.9844 L613.8847,19.7031 Q613.2597,19.125 612.6659,18.8594 Q612.0722,18.5781 611.4472,18.5781 Q610.1034,18.5781 609.4159,19.6563 Q608.7284,20.7188 608.7284,22.8125 Q608.7284,24.9063 609.4159,25.9844 Q610.1034,27.0469 611.4472,27.0469 Q612.0722,27.0469 612.6659,26.7813 Q613.2597,26.5 613.8847,25.9219 L613.8847,28.6406 Z " fill="#000000"/><text fill="#000000" font-family="sans-serif" font-size="14" lengthAdjust="spacing" textLength="37.085" x="631.4159" y="27.8467">Hotel</text><line style="stroke:#181818;stroke-width:0.5;" x1="512.33" x2="755.0868" y1="39" y2="39"/><rect fill="none" height="6" style="stroke:#C82930;stroke-width:1;" width="6" x="519.33" y="49.6484"/><text fill="#000000" font-family="sans-serif" font-size="14" lengthAdjust="spacing" textLength="157.1924" x="531.33" y="55.9951">nom: String {not null}</text><rect fill="none" height="6" style="stroke:#C82930;stroke-width:1;" width="6" x="519.33" y="65.9453"/><text fill="#000000" font-family="sans-serif" font-size="14" lengthAdjust="spacing" textLength="181.1523" x="531.33" y="72.292">adresse: String {not null}</text><rect fill="none" height="6" style="stroke:#C82930;stroke-width:1;" width="6" x="519.33" y="82.2422"/><text fill="#000000" font-family="sans-serif" font-size="14" lengthAdjust="spacing" textLength="172.6279" x="531.33" y="88.5889">etoiles: int {range: 1..5}</text><rect fill="none" height="6" style="stroke:#C82930;stroke-width:1;" width="6" x="519.33" y="98.5391"/><text fill="#000000" font-family="sans-serif" font-size="14" lengthAdjust="spacing" textLength="218.7568" x="531.33" y="104.8857">rooms: List&lt;Room&gt; {ordered}</text><rect fill="none" height="6" style="stroke:#C82930;stroke-width:1;" width="6" x="519.33" y="114.8359"/><text fill="#000000" font-family="sans-serif" font-size="14" lengthAdjust="spacing" textLength="126.8408" x="531.33" y="121.1826">users: List&lt;User&gt;</text><line style="stroke:#181818;stroke-width:0.5;" x1="512.33" x2="755.0868" y1="128.4844" y2="128.4844"/><ellipse cx="522.33" cy="142.1328" fill="#84BE84" rx="3" ry="3" style="stroke:#038048;stroke-width:1;"/><text fill="#000000" font-family="sans-serif" font-size="14" lengthAdjust="spacing" textLength="202.7539" x="531.33" y="145.4795">addRoom(room: Room): void</text><ellipse cx="522.33" cy="158.4297" fill="#84BE84" rx="3" ry="3" style="stroke:#038048;stroke-width:1;"/><text fill="#000000" font-family="sans-serif" font-size="14" lengthAdjust="spacing" textLength="179.5938" x="531.33" y="161.7764">addUser(user: User): void</text></g><!--class Gestionnaire--><g class="entity" data-entity="Gestionnaire" data-source-line="33" data-uid="ent0006" id="entity_Gestionnaire"><rect fill="#F1F1F1" height="162.0781" rx="2.5" ry="2.5" style="stroke:#181818;stroke-width:0.5;" width="673.2402" x="297.09" y="246.08"/><ellipse cx="584.818" cy="262.08" fill="#ADD1B2" rx="11" ry="11" style="stroke:#181818;stroke-width:1;"/><path d="M587.7868,267.7206 Q587.2087,268.0175 586.568,268.1581 Q585.9274,268.3144 585.2243,268.3144 Q582.7243,268.3144 581.3962,266.6737 Q580.0837,265.0175 580.0837,261.8925 Q580.0837,258.7675 581.3962,257.1112 Q582.7243,255.455 585.2243,255.455 Q585.9274,255.455 586.568,255.6112 Q587.2243,255.7675 587.7868,256.0644 L587.7868,258.7831 Q587.1618,258.205 586.568,257.9394 Q585.9743,257.6581 585.3493,257.6581 Q584.0055,257.6581 583.318,258.7362 Q582.6305,259.7987 582.6305,261.8925 Q582.6305,263.9862 583.318,265.0644 Q584.0055,266.1269 585.3493,266.1269 Q585.9743,266.1269 586.568,265.8612 Q587.1618,265.58 587.7868,265.0019 L587.7868,267.7206 Z " fill="#000000"/><text fill="#000000" font-family="sans-serif" font-size="14" lengthAdjust="spacing" textLength="89.2842" x="605.318" y="266.9267">Gestionnaire</text><line style="stroke:#181818;stroke-width:0.5;" x1="298.09" x2="969.3302" y1="278.08" y2="278.08"/><rect fill="none" height="6" style="stroke:#C82930;stroke-width:1;" width="6" x="305.09" y="288.7284"/><text fill="#000000" font-family="sans-serif" font-size="14" lengthAdjust="spacing" textLength="167.8496" x="317.09" y="295.0751">hotel: Hotel {readOnly}</text><rect fill="none" height="6" style="stroke:#C82930;stroke-width:1;" width="6" x="305.09" y="305.0253"/><text fill="#000000" font-family="sans-serif" font-size="14" lengthAdjust="spacing" textLength="254.0029" x="317.09" y="311.372">bookings: List&lt;Booking&gt; {ordered}</text><rect fill="none" height="6" style="stroke:#C82930;stroke-width:1;" width="6" x="305.09" y="321.3222"/><text fill="#000000" font-family="sans-serif" font-size="14" lengthAdjust="spacing" textLength="126.8408" x="317.09" y="327.6689">users: List&lt;User&gt;</text><rect fill="none" height="6" style="stroke:#C82930;stroke-width:1;" width="6" x="305.09" y="337.6191"/><text fill="#000000" font-family="sans-serif" font-size="14" lengthAdjust="spacing" textLength="141.415" x="317.09" y="343.9657">rooms: List&lt;Room&gt;</text><rect fill="none" height="6" style="stroke:#C82930;stroke-width:1;" width="6" x="305.09" y="353.9159"/><text fill="#000000" font-family="sans-serif" font-size="14" lengthAdjust="spacing" textLength="166.5576" x="317.09" y="360.2626">sc: Scanner {transient}</text><line style="stroke:#181818;stroke-width:0.5;" x1="298.09" x2="969.3302" y1="367.5644" y2="367.5644"/><ellipse cx="308.09" cy="381.2128" fill="#84BE84" rx="3" ry="3" style="stroke:#038048;stroke-width:1;"/><text fill="#000000" font-family="sans-serif" font-size="14" lengthAdjust="spacing" textLength="647.2402" x="317.09" y="384.5595">createBooking(user: User, room: Room, dateDebut: LocalDate, dateFin: LocalDate): Booking</text><ellipse cx="308.09" cy="397.5097" fill="#84BE84" rx="3" ry="3" style="stroke:#038048;stroke-width:1;"/><text fill="#000000" font-family="sans-serif" font-size="14" lengthAdjust="spacing" textLength="272.9932" x="317.09" y="400.8564">cancelBooking(booking: Booking): void</text></g><!--class Booking--><g class="entity" data-entity="Booking" data-source-line="43" data-uid="ent0007" id="entity_Booking"><rect fill="#F1F1F1" height="162.0781" rx="2.5" ry="2.5" style="stroke:#181818;stroke-width:0.5;" width="468.5107" x="162.46" y="485.15"/><ellipse cx="364.2193" cy="501.15" fill="#ADD1B2" rx="11" ry="11" style="stroke:#181818;stroke-width:1;"/><path d="M367.188,506.7906 Q366.6099,507.0875 365.9693,507.2281 Q365.3287,507.3844 364.6255,507.3844 Q362.1255,507.3844 360.7974,505.7437 Q359.4849,504.0875 359.4849,500.9625 Q359.4849,497.8375 360.7974,496.1812 Q362.1255,494.525 364.6255,494.525 Q365.3287,494.525 365.9693,494.6812 Q366.6255,494.8375 367.188,495.1344 L367.188,497.8531 Q366.563,497.275 365.9693,497.0094 Q365.3755,496.7281 364.7505,496.7281 Q363.4068,496.7281 362.7193,497.8062 Q362.0318,498.8687 362.0318,500.9625 Q362.0318,503.0562 362.7193,504.1344 Q363.4068,505.1969 364.7505,505.1969 Q365.3755,505.1969 365.9693,504.9312 Q366.563,504.65 367.188,504.0719 L367.188,506.7906 Z " fill="#000000"/><text fill="#000000" font-family="sans-serif" font-size="14" lengthAdjust="spacing" textLength="56.4922" x="384.7193" y="505.9967">Booking</text><line style="stroke:#181818;stroke-width:0.5;" x1="163.46" x2="629.9707" y1="517.15" y2="517.15"/><rect fill="none" height="6" style="stroke:#C82930;stroke-width:1;" width="6" x="170.46" y="527.7984"/><text fill="#000000" font-family="sans-serif" font-size="14" lengthAdjust="spacing" textLength="183.2715" x="182.46" y="534.1451">id: int {unique, readOnly}</text><rect fill="none" height="6" style="stroke:#C82930;stroke-width:1;" width="6" x="170.46" y="544.0953"/><text fill="#000000" font-family="sans-serif" font-size="14" lengthAdjust="spacing" textLength="146.7813" x="182.46" y="550.442">user: User {not null}</text><rect fill="none" height="6" style="stroke:#C82930;stroke-width:1;" width="6" x="170.46" y="560.3922"/><text fill="#000000" font-family="sans-serif" font-size="14" lengthAdjust="spacing" textLength="161.3555" x="182.46" y="566.7389">room: Room {not null}</text><rect fill="none" height="6" style="stroke:#C82930;stroke-width:1;" width="6" x="170.46" y="576.6891"/><text fill="#000000" font-family="sans-serif" font-size="14" lengthAdjust="spacing" textLength="228.5391" x="182.46" y="583.0357">dateDebut: LocalDate {not null}</text><rect fill="none" height="6" style="stroke:#C82930;stroke-width:1;" width="6" x="170.46" y="592.9859"/><text fill="#000000" font-family="sans-serif" font-size="14" lengthAdjust="spacing" textLength="442.5107" x="182.46" y="599.3326">dateFin: LocalDate {not null, constraint: dateFin &gt; dateDebut}</text><rect fill="none" height="6" style="stroke:#C82930;stroke-width:1;" width="6" x="170.46" y="609.2828"/><text fill="#000000" font-family="sans-serif" font-size="14" lengthAdjust="spacing" textLength="153.2891" x="182.46" y="615.6295">status: BookingStatus</text><line style="stroke:#181818;stroke-width:0.5;" x1="163.46" x2="629.9707" y1="622.9312" y2="622.9312"/><ellipse cx="173.46" cy="636.5797" fill="#84BE84" rx="3" ry="3" style="stroke:#038048;stroke-width:1;"/><text fill="#000000" font-family="sans-serif" font-size="14" lengthAdjust="spacing" textLength="149.9258" x="182.46" y="639.9264">calculateTotal(): float</text></g><!--class User--><g class="entity" data-entity="User" data-source-line="53" data-uid="ent0008" id="entity_User"><rect fill="#F1F1F1" height="162.0781" rx="2.5" ry="2.5" style="stroke:#181818;stroke-width:0.5;" width="372.8008" x="20.31" y="724.23"/><ellipse cx="186.5053" cy="740.23" fill="#ADD1B2" rx="11" ry="11" style="stroke:#181818;stroke-width:1;"/><path d="M189.4741,745.8706 Q188.8959,746.1675 188.2553,746.3081 Q187.6147,746.4644 186.9116,746.4644 Q184.4116,746.4644 183.0834,744.8237 Q181.7709,743.1675 181.7709,740.0425 Q181.7709,736.9175 183.0834,735.2612 Q184.4116,733.605 186.9116,733.605 Q187.6147,733.605 188.2553,733.7612 Q188.9116,733.9175 189.4741,734.2144 L189.4741,736.9331 Q188.8491,736.355 188.2553,736.0894 Q187.6616,735.8081 187.0366,735.8081 Q185.6928,735.8081 185.0053,736.8862 Q184.3178,737.9487 184.3178,740.0425 Q184.3178,742.1362 185.0053,743.2144 Q185.6928,744.2769 187.0366,744.2769 Q187.6616,744.2769 188.2553,744.0112 Q188.8491,743.73 189.4741,743.1519 L189.4741,745.8706 Z " fill="#000000"/><text fill="#000000" font-family="sans-serif" font-size="14" lengthAdjust="spacing" textLength="31.9102" x="207.0053" y="745.0767">User</text><line style="stroke:#181818;stroke-width:0.5;" x1="21.31" x2="392.1108" y1="756.23" y2="756.23"/><rect fill="none" height="6" style="stroke:#C82930;stroke-width:1;" width="6" x="28.31" y="766.8784"/><text fill="#000000" font-family="sans-serif" font-size="14" lengthAdjust="spacing" textLength="214.0469" x="40.31" y="773.2251">userId: int {unique, readOnly}</text><rect fill="none" height="6" style="stroke:#C82930;stroke-width:1;" width="6" x="28.31" y="783.1753"/><text fill="#000000" font-family="sans-serif" font-size="14" lengthAdjust="spacing" textLength="194.7764" x="40.31" y="789.522">firstName: String {not null}</text><rect fill="none" height="6" style="stroke:#C82930;stroke-width:1;" width="6" x="28.31" y="799.4722"/><text fill="#000000" font-family="sans-serif" font-size="14" lengthAdjust="spacing" textLength="192.6709" x="40.31" y="805.8189">lastName: String {not null}</text><rect fill="none" height="6" style="stroke:#C82930;stroke-width:1;" width="6" x="28.31" y="815.7691"/><text fill="#000000" font-family="sans-serif" font-size="14" lengthAdjust="spacing" textLength="263.4639" x="40.31" y="822.1157">email: String {unique, format: email}</text><rect fill="none" height="6" style="stroke:#C82930;stroke-width:1;" width="6" x="28.31" y="832.0659"/><text fill="#000000" font-family="sans-serif" font-size="14" lengthAdjust="spacing" textLength="346.8008" x="40.31" y="838.4126">phoneNumber: String {pattern: "^\+?[0-9\-]+$"}</text><rect fill="none" height="6" style="stroke:#C82930;stroke-width:1;" width="6" x="28.31" y="848.3628"/><text fill="#000000" font-family="sans-serif" font-size="14" lengthAdjust="spacing" textLength="211.0254" x="40.31" y="854.7095">password: String {encrypted}</text><line style="stroke:#181818;stroke-width:0.5;" x1="21.31" x2="392.1108" y1="862.0112" y2="862.0112"/><ellipse cx="31.31" cy="875.6597" fill="#84BE84" rx="3" ry="3" style="stroke:#038048;stroke-width:1;"/><text fill="#000000" font-family="sans-serif" font-size="14" lengthAdjust="spacing" textLength="282.7822" x="40.31" y="879.0064">authenticate(password: String): boolean</text></g><!--class Room--><g class="entity" data-entity="Room" data-source-line="63" data-uid="ent0009" id="entity_Room"><rect fill="#F1F1F1" height="162.0781" rx="2.5" ry="2.5" style="stroke:#181818;stroke-width:0.5;" width="289.2588" x="689.08" y="724.23"/><ellipse cx="809.2113" cy="740.23" fill="#ADD1B2" rx="11" ry="11" style="stroke:#181818;stroke-width:1;"/><path d="M812.1801,745.8706 Q811.602,746.1675 810.9613,746.3081 Q810.3207,746.4644 809.6176,746.4644 Q807.1176,746.4644 805.7895,744.8237 Q804.477,743.1675 804.477,740.0425 Q804.477,736.9175 805.7895,735.2612 Q807.1176,733.605 809.6176,733.605 Q810.3207,733.605 810.9613,733.7612 Q811.6176,733.9175 812.1801,734.2144 L812.1801,736.9331 Q811.5551,736.355 810.9613,736.0894 Q810.3676,735.8081 809.7426,735.8081 Q808.3988,735.8081 807.7113,736.8862 Q807.0238,737.9487 807.0238,740.0425 Q807.0238,742.1362 807.7113,743.2144 Q808.3988,744.2769 809.7426,744.2769 Q810.3676,744.2769 810.9613,744.0112 Q811.5551,743.73 812.1801,743.1519 L812.1801,745.8706 Z " fill="#000000"/><text fill="#000000" font-family="sans-serif" font-size="14" lengthAdjust="spacing" textLength="40.4961" x="829.7113" y="745.0767">Room</text><line style="stroke:#181818;stroke-width:0.5;" x1="690.08" x2="977.3388" y1="756.23" y2="756.23"/><rect fill="none" height="6" style="stroke:#C82930;stroke-width:1;" width="6" x="697.08" y="766.8784"/><text fill="#000000" font-family="sans-serif" font-size="14" lengthAdjust="spacing" textLength="263.2588" x="709.08" y="773.2251">roomNumber: int {unique, readOnly}</text><rect fill="none" height="6" style="stroke:#C82930;stroke-width:1;" width="6" x="697.08" y="783.1753"/><text fill="#000000" font-family="sans-serif" font-size="14" lengthAdjust="spacing" textLength="155.5586" x="709.08" y="789.522">price: float {min: 0.0}</text><rect fill="none" height="6" style="stroke:#C82930;stroke-width:1;" width="6" x="697.08" y="799.4722"/><text fill="#000000" font-family="sans-serif" font-size="14" lengthAdjust="spacing" textLength="131.332" x="709.08" y="805.8189">bedType: BedType</text><rect fill="none" height="6" style="stroke:#C82930;stroke-width:1;" width="6" x="697.08" y="815.7691"/><text fill="#000000" font-family="sans-serif" font-size="14" lengthAdjust="spacing" textLength="128.7891" x="709.08" y="822.1157">description: String</text><rect fill="none" height="6" style="stroke:#C82930;stroke-width:1;" width="6" x="697.08" y="832.0659"/><text fill="#000000" font-family="sans-serif" font-size="14" lengthAdjust="spacing" textLength="237.7539" x="709.08" y="838.4126">available: boolean {default: true}</text><rect fill="none" height="6" style="stroke:#C82930;stroke-width:1;" width="6" x="697.08" y="848.3628"/><text fill="#000000" font-family="sans-serif" font-size="14" lengthAdjust="spacing" textLength="137.293" x="709.08" y="854.7095">status: RoomStatus</text><line style="stroke:#181818;stroke-width:0.5;" x1="690.08" x2="977.3388" y1="862.0112" y2="862.0112"/><ellipse cx="700.08" cy="875.6597" fill="#84BE84" rx="3" ry="3" style="stroke:#038048;stroke-width:1;"/><text fill="#000000" font-family="sans-serif" font-size="14" lengthAdjust="spacing" textLength="151.4365" x="709.08" y="879.0064">isAvailable(): boolean</text></g><!--reverse link Hotel to Gestionnaire--><g class="link" data-entity-1="Hotel" data-entity-2="Gestionnaire" data-source-line="74" data-uid="lnk10" id="link_Hotel_Gestionnaire"><path codeLine="74" d="M633.71,181.3 C633.71,206.02 633.71,221.22 633.71,245.93" fill="none" id="Hotel-backto-Gestionnaire" style="stroke:#181818;stroke-width:1;"/><polygon fill="#181818" points="633.71,169.3,629.71,175.3,633.71,181.3,637.71,175.3,633.71,169.3" style="stroke:#181818;stroke-width:1;"/><text fill="#000000" font-family="sans-serif" font-size="13" lengthAdjust="spacing" textLength="59.8584" x="634.71" y="212.1469">manages</text><text fill="#000000" font-family="sans-serif" font-size="13" lengthAdjust="spacing" textLength="8.271" x="625.366" y="189.2781">1</text><text fill="#000000" font-family="sans-serif" font-size="13" lengthAdjust="spacing" textLength="8.271" x="625.3658" y="235.1039">1</text></g><!--reverse link Hotel to Room--><g class="link" data-entity-1="Hotel" data-entity-2="Room" data-source-line="75" data-uid="lnk11" id="link_Hotel_Room"><path codeLine="75" d="M768.1128,111.3359 C848.7828,131.1759 936.85,167.87 987.71,246.08 C1096.69,413.65 1060.72,527.99 949.71,694.23 C942.93,704.39 935.05,714.31 926.65,723.76" fill="none" id="Hotel-backto-Room" style="stroke:#181818;stroke-width:1;"/><polygon fill="#181818" points="756.46,108.47,761.3311,113.7872,768.1128,111.3359,763.2417,106.0187,756.46,108.47" style="stroke:#181818;stroke-width:1;"/><polygon fill="#000000" points="1056.457,441.876,1055.8786,451.3689,1061.5689,449.8959,1056.457,441.876" style="stroke:#000000;stroke-width:1;"/><text fill="#000000" font-family="sans-serif" font-size="13" lengthAdjust="spacing" textLength="55.0278" x="1066.71" y="451.2169">contains</text><text fill="#000000" font-family="sans-serif" font-size="13" lengthAdjust="spacing" textLength="8.271" x="764.1922" y="106.3289">1</text><text fill="#000000" font-family="sans-serif" font-size="13" lengthAdjust="spacing" textLength="23.0356" x="910.6503" y="713.1834">0..*</text></g><!--reverse link Hotel to User--><g class="link" data-entity-1="Hotel" data-entity-2="User" data-source-line="76" data-uid="lnk12" id="link_Hotel_User"><path codeLine="76" d="M499.1619,110.9076 C360.4519,136.0176 159.49,181.8 111.71,246.08 C6,388.27 96.25,606.96 158.91,723.93" fill="none" id="Hotel-backto-User" style="stroke:#181818;stroke-width:1;"/><polygon fill="none" points="510.97,108.77,504.3534,105.9028,499.1619,110.9076,505.7785,113.7748,510.97,108.77" style="stroke:#181818;stroke-width:1;"/><text fill="#000000" font-family="sans-serif" font-size="13" lengthAdjust="spacing" textLength="55.0278" x="66.71" y="451.2169">contains</text><text fill="#000000" font-family="sans-serif" font-size="13" lengthAdjust="spacing" textLength="8.271" x="495.2551" y="106.6472">1</text><text fill="#000000" font-family="sans-serif" font-size="13" lengthAdjust="spacing" textLength="23.0356" x="130.6301" y="713.0906">0..*</text></g><!--link Gestionnaire to Booking--><g class="link" data-entity-1="Gestionnaire" data-entity-2="Booking" data-source-line="77" data-uid="lnk13" id="link_Gestionnaire_Booking"><path codeLine="77" d="M553.47,408.38 C528.76,433.1 505.8118,456.0565 481.1118,480.7665" fill="none" id="Gestionnaire-to-Booking" style="stroke:#181818;stroke-width:1;"/><polygon fill="#181818" points="476.87,485.01,486.0617,481.4726,480.4048,481.4738,480.4037,475.8169,476.87,485.01" style="stroke:#181818;stroke-width:1;"/><text fill="#000000" font-family="sans-serif" font-size="13" lengthAdjust="spacing" textLength="48.3247" x="523.71" y="451.2169">creates</text><text fill="#000000" font-family="sans-serif" font-size="13" lengthAdjust="spacing" textLength="8.271" x="537.9794" y="428.3581">1</text><text fill="#000000" font-family="sans-serif" font-size="13" lengthAdjust="spacing" textLength="23.0356" x="459.9861" y="474.1848">0..*</text></g><!--link Booking to User--><g class="link" data-entity-1="Booking" data-entity-2="User" data-source-line="78" data-uid="lnk14" id="link_Booking_User"><path codeLine="78" d="M332.39,647.46 C312.58,672.17 294.5219,694.6977 274.7219,719.4077" fill="none" id="Booking-to-User" style="stroke:#181818;stroke-width:1;"/><polygon fill="#181818" points="270.97,724.09,279.7193,719.5679,274.0966,720.1881,273.4763,714.5654,270.97,724.09" style="stroke:#181818;stroke-width:1;"/><polygon fill="#000000" points="309.5829,689.6978,317.5331,684.4781,312.9467,680.802,309.5829,689.6978" style="stroke:#000000;stroke-width:1;"/><text fill="#000000" font-family="sans-serif" font-size="13" lengthAdjust="spacing" textLength="68.2627" x="321.71" y="690.2969">belongs to</text><text fill="#000000" font-family="sans-serif" font-size="13" lengthAdjust="spacing" textLength="8.271" x="318.5299" y="667.1614">1</text><text fill="#000000" font-family="sans-serif" font-size="13" lengthAdjust="spacing" textLength="8.271" x="268.3489" y="713.2648">1</text></g><!--link Booking to Room--><g class="link" data-entity-1="Booking" data-entity-2="Room" data-source-line="79" data-uid="lnk15" id="link_Booking_Room"><path codeLine="79" d="M544.96,647.62 C591.37,672.8 637.246,697.6891 683.426,722.7391" fill="none" id="Booking-to-Room" style="stroke:#181818;stroke-width:1;"/><polygon fill="#181818" points="688.7,725.6,682.6962,717.7927,684.305,723.2159,678.8817,724.8247,688.7,725.6" style="stroke:#181818;stroke-width:1;"/><polygon fill="#000000" points="638.1049,688.1807,631.5559,681.2842,628.753,686.4507,638.1049,688.1807" style="stroke:#000000;stroke-width:1;"/><text fill="#000000" font-family="sans-serif" font-size="13" lengthAdjust="spacing" textLength="38.4604" x="642.71" y="690.2969">books</text><text fill="#000000" font-family="sans-serif" font-size="13" lengthAdjust="spacing" textLength="8.271" x="549.3677" y="667.3351">1</text><text fill="#000000" font-family="sans-serif" font-size="13" lengthAdjust="spacing" textLength="8.271" x="673.0237" y="718.1757">1</text></g><!--link BookingStatus to Booking--><g class="link" data-entity-1="BookingStatus" data-entity-2="Booking" data-source-line="82" data-uid="lnk16" id="link_BookingStatus_Booking"><path codeLine="82" d="M250.1,392.27 C274.29,420.79 303.02,454.68 328.61,484.87" fill="none" id="BookingStatus-Booking" style="stroke:#181818;stroke-width:1;stroke-dasharray:7.0,7.0;"/><polygon fill="#000000" points="310.9435,450.5302,307.3357,441.7304,302.8524,445.5316,310.9435,450.5302" style="stroke:#000000;stroke-width:1;"/><text fill="#000000" font-family="sans-serif" font-size="13" lengthAdjust="spacing" textLength="39.9458" x="316.71" y="451.2169">status</text></g><!--link RoomStatus to Room--><g class="link" data-entity-1="RoomStatus" data-entity-2="Room" data-source-line="83" data-uid="lnk17" id="link_RoomStatus_Room"><path codeLine="83" d="M777.79,614.88 C787.01,646.12 799.3,687.72 810,723.98" fill="none" id="RoomStatus-Room" style="stroke:#181818;stroke-width:1;stroke-dasharray:7.0,7.0;"/><polygon fill="#000000" points="807.1258,690.5918,807.3833,681.0847,801.746,682.749,807.1258,690.5918" style="stroke:#000000;stroke-width:1;"/><text fill="#000000" font-family="sans-serif" font-size="13" lengthAdjust="spacing" textLength="39.9458" x="814.71" y="690.2969">status</text></g><!--link BedType to Room--><g class="link" data-entity-1="BedType" data-entity-2="Room" data-source-line="84" data-uid="lnk18" id="link_BedType_Room"><path codeLine="84" d="M889.63,614.88 C880.41,646.12 868.12,687.72 857.42,723.98" fill="none" id="BedType-Room" style="stroke:#181818;stroke-width:1;stroke-dasharray:7.0,7.0;"/><polygon fill="#000000" points="874.2942,690.5918,879.674,682.749,874.0367,681.0847,874.2942,690.5918" style="stroke:#000000;stroke-width:1;"/><text fill="#000000" font-family="sans-serif" font-size="13" lengthAdjust="spacing" textLength="56.3862" x="884.71" y="690.2969">bedType</text></g><!--SRC=[ZLNVRzem47xdhx3GfBAsGVHX3uig9Wff6us6gi1UnZQPn1HhZirifrM5-h_l7DlvmMYr9ypTT-VxlZjVJb0G12ZYHKuarbHmPGmT0WPq9SHloX_d6kj2eNq7eViecSJ93Pp6i-GwVhYB9kOyIiRHT6hFjz7uQpJv5IUDFxFbelFQiKaVXCWR6KVVHl5qT3MDu3mRZvVtSPdcRXGdYoWnYQl8Av8jNdQa39j35MNCPBQqmVDbl2Yn9oMZCSDA4KicDMTqApHXPN20kCX3DDSIsA4z5nhnWh7NqeKpII3oBJVHWZAYGaIvHdk9-ID0B_hzJzOjWHqufrJfIyDqYFP2PaIIpFeBHQJtB-4y1EiPt9aPSCz4XwL27qFq96ZclGRQCx4XCaVl1RQMsmrHfdSSKqaSnQsX6thMak1injcBhM9j6-iBSNt-drgFC2ojAWN1KimvaMYlGHP52TUlPVqfNAw9kwJ1uXpLVCzH1fW9MHSQSeiKimdyjzPhoXisuEvIsUIOfuJvv8vO1Vb7A6Tt6j7CzR7Wz4y1rxLbgaizd8Awy4FFCHh7C6rIDU8SfV06GK6eA_H8DAppsXIgV45X-uawGLXQC40lXCQi1mficC2wbi3ogGZ6xskmeLBf1ETlFWZ8-QwVv9YoskblsGYPOs1OkYrojnMS94M-Dgfx_0vhJIHerVsvMfrz-Ju8FgzMmO-p3rqN19IUOMph2C9J-RBJTehXzHHw2wD8Kv2aTuW6TM1a6C6yriTsjMgpB-WTZNQIfiJfZFQvwUoWFt1FpIwjq6ylEm14fPBkp9FrbTZTymHYu3KZLLbedv4DBXWefML1sislLsd9bAgHZ- -rYTcLE59AfDGj-MUgjr2usC4mO2d5irsLTbrqBxhe52BCRskrX2Z773yITGWSzFkdNIjTQ2POm_mgTDc0YHfMJc0DwxIkCDWW67giVx2XMoEguoqLyABAk2PCm5f3Mg3XKPmhqAm91H0dJEFh1vrbLg4jtLb9sb_1VhzHacq496fyr03WRgcy_iDLkznKeE5V]--></g></svg>