<svg xmlns="http://www.w3.org/2000/svg" xmlns:xlink="http://www.w3.org/1999/xlink" contentStyleType="text/css" data-diagram-type="SEQUENCE" height="1691px" preserveAspectRatio="none" style="width:706px;height:1691px;background:#FFFFFF;" version="1.1" viewBox="0 0 706 1691" width="706px" zoomAndPan="magnify"><defs/><g><rect fill="none" height="148.4688" style="stroke:#000000;stroke-width:1.5;" width="545.4121" x="134.332" y="316.2266"/><rect fill="none" height="398.3359" style="stroke:#000000;stroke-width:1.5;" width="679.7441" x="10" y="609.2266"/><rect fill="none" height="148.4688" style="stroke:#000000;stroke-width:1.5;" width="545.4121" x="134.332" y="779.0234"/><rect fill="none" height="148.4688" style="stroke:#000000;stroke-width:1.5;" width="545.4121" x="134.332" y="1152.0938"/><rect fill="none" height="148.4688" style="stroke:#000000;stroke-width:1.5;" width="545.4121" x="134.332" y="1445.0938"/><g><title>Admin</title><rect fill="#000000" fill-opacity="0.00000" height="1529.2656" width="8" x="41.4321" y="81.2969"/><line style="stroke:#181818;stroke-width:0.5;stroke-dasharray:5.0,5.0;" x1="45" x2="45" y1="81.2969" y2="1610.5625"/></g><g><title>Admin Interface</title><rect fill="#000000" fill-opacity="0.00000" height="1529.2656" width="8" x="203.3286" y="81.2969"/><line style="stroke:#181818;stroke-width:0.5;stroke-dasharray:5.0,5.0;" x1="206.332" x2="206.332" y1="81.2969" y2="1610.5625"/></g><g><title>User Controller</title><rect fill="#000000" fill-opacity="0.00000" height="1529.2656" width="8" x="437.4995" y="81.2969"/><line style="stroke:#181818;stroke-width:0.5;stroke-dasharray:5.0,5.0;" x1="440.7329" x2="440.7329" y1="81.2969" y2="1610.5625"/></g><g><title>User List (Database)</title><rect fill="#000000" fill-opacity="0.00000" height="1529.2656" width="8" x="587.2402" y="81.2969"/><line style="stroke:#181818;stroke-width:0.5;stroke-dasharray:5.0,5.0;" x1="590.7363" x2="590.7363" y1="81.2969" y2="1610.5625"/></g><g class="participant participant-head" data-participant="Admin"><text fill="#000000" font-family="sans-serif" font-size="14" lengthAdjust="spacing" textLength="44.8643" x="20" y="77.9951">Admin</text><ellipse cx="45.4321" cy="13.5" fill="#E2E2F0" rx="8" ry="8" style="stroke:#181818;stroke-width:0.5;"/><path d="M45.4321,21.5 L45.4321,48.5 M32.4321,29.5 L58.4321,29.5 M45.4321,48.5 L32.4321,63.5 M45.4321,48.5 L58.4321,63.5" fill="none" style="stroke:#181818;stroke-width:0.5;"/></g><g class="participant participant-tail" data-participant="Admin"><text fill="#000000" font-family="sans-serif" font-size="14" lengthAdjust="spacing" textLength="44.8643" x="20" y="1622.5576">Admin</text><ellipse cx="45.4321" cy="1634.3594" fill="#E2E2F0" rx="8" ry="8" style="stroke:#181818;stroke-width:0.5;"/><path d="M45.4321,1642.3594 L45.4321,1669.3594 M32.4321,1650.3594 L58.4321,1650.3594 M45.4321,1669.3594 L32.4321,1684.3594 M45.4321,1669.3594 L58.4321,1684.3594" fill="none" style="stroke:#181818;stroke-width:0.5;"/></g><g class="participant participant-head" data-participant="UI"><rect fill="#E2E2F0" height="30.2969" rx="2.5" ry="2.5" style="stroke:#181818;stroke-width:0.5;" width="125.9932" x="144.332" y="50"/><text fill="#000000" font-family="sans-serif" font-size="14" lengthAdjust="spacing" textLength="111.9932" x="151.332" y="69.9951">Admin Interface</text></g><g class="participant participant-tail" data-participant="UI"><rect fill="#E2E2F0" height="30.2969" rx="2.5" ry="2.5" style="stroke:#181818;stroke-width:0.5;" width="125.9932" x="144.332" y="1609.5625"/><text fill="#000000" font-family="sans-serif" font-size="14" lengthAdjust="spacing" textLength="111.9932" x="151.332" y="1629.5576">Admin Interface</text></g><g class="participant participant-head" data-participant="Controller"><rect fill="#E2E2F0" height="30.2969" rx="2.5" ry="2.5" style="stroke:#181818;stroke-width:0.5;" width="119.5332" x="381.7329" y="50"/><text fill="#000000" font-family="sans-serif" font-size="14" lengthAdjust="spacing" textLength="105.5332" x="388.7329" y="69.9951">User Controller</text></g><g class="participant participant-tail" data-participant="Controller"><rect fill="#E2E2F0" height="30.2969" rx="2.5" ry="2.5" style="stroke:#181818;stroke-width:0.5;" width="119.5332" x="381.7329" y="1609.5625"/><text fill="#000000" font-family="sans-serif" font-size="14" lengthAdjust="spacing" textLength="105.5332" x="388.7329" y="1629.5576">User Controller</text></g><g class="participant participant-head" data-participant="DB"><rect fill="#E2E2F0" height="30.2969" rx="2.5" ry="2.5" style="stroke:#181818;stroke-width:0.5;" width="157.0078" x="512.7363" y="50"/><text fill="#000000" font-family="sans-serif" font-size="14" lengthAdjust="spacing" textLength="143.0078" x="519.7363" y="69.9951">User List (Database)</text></g><g class="participant participant-tail" data-participant="DB"><rect fill="#E2E2F0" height="30.2969" rx="2.5" ry="2.5" style="stroke:#181818;stroke-width:0.5;" width="157.0078" x="512.7363" y="1609.5625"/><text fill="#000000" font-family="sans-serif" font-size="14" lengthAdjust="spacing" textLength="143.0078" x="519.7363" y="1629.5576">User List (Database)</text></g><rect fill="#EEEEEE" height="3" style="stroke:#EEEEEE;stroke-width:1;" width="699.7441" x="0" y="111.8633"/><line style="stroke:#000000;stroke-width:1;" x1="0" x2="699.7441" y1="111.8633" y2="111.8633"/><line style="stroke:#000000;stroke-width:1;" x1="0" x2="699.7441" y1="114.8633" y2="114.8633"/><rect fill="#EEEEEE" height="23.1328" style="stroke:#000000;stroke-width:2;" width="85.2461" x="307.249" y="101.2969"/><text fill="#000000" font-family="sans-serif" font-size="13" font-weight="bold" lengthAdjust="spacing" textLength="66.7202" x="313.249" y="117.3638">Add User</text><g class="message" data-participant-1="Admin" data-participant-2="UI"><polygon fill="#181818" points="195.3286,151.5625,205.3286,155.5625,195.3286,159.5625,199.3286,155.5625" style="stroke:#181818;stroke-width:1;"/><line style="stroke:#181818;stroke-width:1;" x1="45.4321" x2="201.3286" y1="155.5625" y2="155.5625"/><text fill="#000000" font-family="sans-serif" font-size="13" lengthAdjust="spacing" textLength="115.356" x="52.4321" y="150.4966">Select "Add User"</text></g><g class="message" data-participant-1="UI" data-participant-2="Controller"><polygon fill="#181818" points="429.4995,180.6953,439.4995,184.6953,429.4995,188.6953,433.4995,184.6953" style="stroke:#181818;stroke-width:1;"/><line style="stroke:#181818;stroke-width:1;" x1="207.3286" x2="435.4995" y1="184.6953" y2="184.6953"/><text fill="#000000" font-family="sans-serif" font-size="13" lengthAdjust="spacing" textLength="116.6826" x="214.3286" y="179.6294">Request Add User</text></g><g class="message" data-participant-1="Controller" data-participant-2="UI"><polygon fill="#181818" points="218.3286,209.8281,208.3286,213.8281,218.3286,217.8281,214.3286,213.8281" style="stroke:#181818;stroke-width:1;"/><line style="stroke:#181818;stroke-width:1;" x1="212.3286" x2="440.4995" y1="213.8281" y2="213.8281"/><text fill="#000000" font-family="sans-serif" font-size="13" lengthAdjust="spacing" textLength="152.1216" x="224.3286" y="208.7622">Prompt for User Details</text></g><g class="message" data-participant-1="Admin" data-participant-2="UI"><polygon fill="#181818" points="195.3286,238.9609,205.3286,242.9609,195.3286,246.9609,199.3286,242.9609" style="stroke:#181818;stroke-width:1;"/><line style="stroke:#181818;stroke-width:1;" x1="45.4321" x2="201.3286" y1="242.9609" y2="242.9609"/><text fill="#000000" font-family="sans-serif" font-size="13" lengthAdjust="spacing" textLength="114.8228" x="52.4321" y="237.895">Enter user details</text></g><g class="message" data-participant-1="UI" data-participant-2="Controller"><polygon fill="#181818" points="429.4995,268.0938,439.4995,272.0938,429.4995,276.0938,433.4995,272.0938" style="stroke:#181818;stroke-width:1;"/><line style="stroke:#181818;stroke-width:1;" x1="207.3286" x2="435.4995" y1="272.0938" y2="272.0938"/><text fill="#000000" font-family="sans-serif" font-size="13" lengthAdjust="spacing" textLength="126.0454" x="214.3286" y="267.0278">Submit user details</text></g><g class="message" data-participant-1="Controller" data-participant-2="DB"><polygon fill="#181818" points="579.2402,297.2266,589.2402,301.2266,579.2402,305.2266,583.2402,301.2266" style="stroke:#181818;stroke-width:1;"/><line style="stroke:#181818;stroke-width:1;" x1="441.4995" x2="585.2402" y1="301.2266" y2="301.2266"/><text fill="#000000" font-family="sans-serif" font-size="13" lengthAdjust="spacing" textLength="88.8862" x="448.4995" y="296.1606">Add new user</text></g><path d="M134.332,316.2266 L198.7749,316.2266 L198.7749,323.3594 L188.7749,333.3594 L134.332,333.3594 L134.332,316.2266" fill="#EEEEEE" style="stroke:#000000;stroke-width:1.5;"/><rect fill="none" height="148.4688" style="stroke:#000000;stroke-width:1.5;" width="545.4121" x="134.332" y="316.2266"/><text fill="#000000" font-family="sans-serif" font-size="13" font-weight="bold" lengthAdjust="spacing" textLength="19.4429" x="149.332" y="329.2935">alt</text><text fill="#000000" font-family="sans-serif" font-size="11" font-weight="bold" lengthAdjust="spacing" textLength="59.4043" x="213.7749" y="328.437">[Success]</text><g class="message" data-participant-1="DB" data-participant-2="Controller"><polygon fill="#181818" points="452.4995,350.4922,442.4995,354.4922,452.4995,358.4922,448.4995,354.4922" style="stroke:#181818;stroke-width:1;"/><line style="stroke:#181818;stroke-width:1;stroke-dasharray:2.0,2.0;" x1="446.4995" x2="590.2402" y1="354.4922" y2="354.4922"/><text fill="#000000" font-family="sans-serif" font-size="13" lengthAdjust="spacing" textLength="74.4834" x="458.4995" y="349.4263">User added</text></g><g class="message" data-participant-1="Controller" data-participant-2="UI"><polygon fill="#181818" points="218.3286,379.625,208.3286,383.625,218.3286,387.625,214.3286,383.625" style="stroke:#181818;stroke-width:1;"/><line style="stroke:#181818;stroke-width:1;" x1="212.3286" x2="440.4995" y1="383.625" y2="383.625"/><text fill="#000000" font-family="sans-serif" font-size="13" lengthAdjust="spacing" textLength="152.6167" x="224.3286" y="378.5591">Show success message</text></g><line style="stroke:#000000;stroke-width:1;stroke-dasharray:2.0,2.0;" x1="134.332" x2="679.7441" y1="392.625" y2="392.625"/><text fill="#000000" font-family="sans-serif" font-size="11" font-weight="bold" lengthAdjust="spacing" textLength="53.249" x="139.332" y="402.8354">[Failure]</text><g class="message" data-participant-1="DB" data-participant-2="Controller"><polygon fill="#181818" points="452.4995,423.5625,442.4995,427.5625,452.4995,431.5625,448.4995,427.5625" style="stroke:#181818;stroke-width:1;"/><line style="stroke:#181818;stroke-width:1;stroke-dasharray:2.0,2.0;" x1="446.4995" x2="590.2402" y1="427.5625" y2="427.5625"/><text fill="#000000" font-family="sans-serif" font-size="13" lengthAdjust="spacing" textLength="94.7578" x="458.4995" y="422.4966">Error message</text></g><g class="message" data-participant-1="Controller" data-participant-2="UI"><polygon fill="#181818" points="218.3286,452.6953,208.3286,456.6953,218.3286,460.6953,214.3286,456.6953" style="stroke:#181818;stroke-width:1;"/><line style="stroke:#181818;stroke-width:1;" x1="212.3286" x2="440.4995" y1="456.6953" y2="456.6953"/><text fill="#000000" font-family="sans-serif" font-size="13" lengthAdjust="spacing" textLength="133.7515" x="224.3286" y="451.6294">Show error message</text></g><rect fill="#EEEEEE" height="3" style="stroke:#EEEEEE;stroke-width:1;" width="699.7441" x="0" y="492.2617"/><line style="stroke:#000000;stroke-width:1;" x1="0" x2="699.7441" y1="492.2617" y2="492.2617"/><line style="stroke:#000000;stroke-width:1;" x1="0" x2="699.7441" y1="495.2617" y2="495.2617"/><rect fill="#EEEEEE" height="23.1328" style="stroke:#000000;stroke-width:2;" width="85.4302" x="307.157" y="481.6953"/><text fill="#000000" font-family="sans-serif" font-size="13" font-weight="bold" lengthAdjust="spacing" textLength="66.9043" x="313.157" y="497.7622">Edit User</text><g class="message" data-participant-1="Admin" data-participant-2="UI"><polygon fill="#181818" points="195.3286,531.9609,205.3286,535.9609,195.3286,539.9609,199.3286,535.9609" style="stroke:#181818;stroke-width:1;"/><line style="stroke:#181818;stroke-width:1;" x1="45.4321" x2="201.3286" y1="535.9609" y2="535.9609"/><text fill="#000000" font-family="sans-serif" font-size="13" lengthAdjust="spacing" textLength="120.3579" x="52.4321" y="530.895">Select User to Edit</text></g><g class="message" data-participant-1="UI" data-participant-2="Controller"><polygon fill="#181818" points="429.4995,561.0938,439.4995,565.0938,429.4995,569.0938,433.4995,565.0938" style="stroke:#181818;stroke-width:1;"/><line style="stroke:#181818;stroke-width:1;" x1="207.3286" x2="435.4995" y1="565.0938" y2="565.0938"/><text fill="#000000" font-family="sans-serif" font-size="13" lengthAdjust="spacing" textLength="136.354" x="214.3286" y="560.0278">Request User Details</text></g><g class="message" data-participant-1="Controller" data-participant-2="DB"><polygon fill="#181818" points="579.2402,590.2266,589.2402,594.2266,579.2402,598.2266,583.2402,594.2266" style="stroke:#181818;stroke-width:1;"/><line style="stroke:#181818;stroke-width:1;" x1="441.4995" x2="585.2402" y1="594.2266" y2="594.2266"/><text fill="#000000" font-family="sans-serif" font-size="13" lengthAdjust="spacing" textLength="101.8608" x="448.4995" y="589.1606">Fetch user data</text></g><path d="M10,609.2266 L74.4429,609.2266 L74.4429,616.3594 L64.4429,626.3594 L10,626.3594 L10,609.2266" fill="#EEEEEE" style="stroke:#000000;stroke-width:1.5;"/><rect fill="none" height="398.3359" style="stroke:#000000;stroke-width:1.5;" width="679.7441" x="10" y="609.2266"/><text fill="#000000" font-family="sans-serif" font-size="13" font-weight="bold" lengthAdjust="spacing" textLength="19.4429" x="25" y="622.2935">alt</text><text fill="#000000" font-family="sans-serif" font-size="11" font-weight="bold" lengthAdjust="spacing" textLength="80.8564" x="89.4429" y="621.437">[User Found]</text><g class="message" data-participant-1="DB" data-participant-2="Controller"><polygon fill="#181818" points="452.4995,643.4922,442.4995,647.4922,452.4995,651.4922,448.4995,647.4922" style="stroke:#181818;stroke-width:1;"/><line style="stroke:#181818;stroke-width:1;stroke-dasharray:2.0,2.0;" x1="446.4995" x2="590.2402" y1="647.4922" y2="647.4922"/><text fill="#000000" font-family="sans-serif" font-size="13" lengthAdjust="spacing" textLength="77.0732" x="458.4995" y="642.4263">User details</text></g><g class="message" data-participant-1="Controller" data-participant-2="UI"><polygon fill="#181818" points="218.3286,672.625,208.3286,676.625,218.3286,680.625,214.3286,676.625" style="stroke:#181818;stroke-width:1;"/><line style="stroke:#181818;stroke-width:1;" x1="212.3286" x2="440.4995" y1="676.625" y2="676.625"/><text fill="#000000" font-family="sans-serif" font-size="13" lengthAdjust="spacing" textLength="115.0068" x="224.3286" y="671.5591">Show user details</text></g><g class="message" data-participant-1="Admin" data-participant-2="UI"><polygon fill="#181818" points="195.3286,701.7578,205.3286,705.7578,195.3286,709.7578,199.3286,705.7578" style="stroke:#181818;stroke-width:1;"/><line style="stroke:#181818;stroke-width:1;" x1="45.4321" x2="201.3286" y1="705.7578" y2="705.7578"/><text fill="#000000" font-family="sans-serif" font-size="13" lengthAdjust="spacing" textLength="105.1045" x="52.4321" y="700.6919">Edit user details</text></g><g class="message" data-participant-1="UI" data-participant-2="Controller"><polygon fill="#181818" points="429.4995,730.8906,439.4995,734.8906,429.4995,738.8906,433.4995,734.8906" style="stroke:#181818;stroke-width:1;"/><line style="stroke:#181818;stroke-width:1;" x1="207.3286" x2="435.4995" y1="734.8906" y2="734.8906"/><text fill="#000000" font-family="sans-serif" font-size="13" lengthAdjust="spacing" textLength="151.7471" x="214.3286" y="729.8247">Submit updated details</text></g><g class="message" data-participant-1="Controller" data-participant-2="DB"><polygon fill="#181818" points="579.2402,760.0234,589.2402,764.0234,579.2402,768.0234,583.2402,764.0234" style="stroke:#181818;stroke-width:1;"/><line style="stroke:#181818;stroke-width:1;" x1="441.4995" x2="585.2402" y1="764.0234" y2="764.0234"/><text fill="#000000" font-family="sans-serif" font-size="13" lengthAdjust="spacing" textLength="125.7407" x="448.4995" y="758.9575">Update user record</text></g><path d="M134.332,779.0234 L198.7749,779.0234 L198.7749,786.1563 L188.7749,796.1563 L134.332,796.1563 L134.332,779.0234" fill="#EEEEEE" style="stroke:#000000;stroke-width:1.5;"/><rect fill="none" height="148.4688" style="stroke:#000000;stroke-width:1.5;" width="545.4121" x="134.332" y="779.0234"/><text fill="#000000" font-family="sans-serif" font-size="13" font-weight="bold" lengthAdjust="spacing" textLength="19.4429" x="149.332" y="792.0903">alt</text><text fill="#000000" font-family="sans-serif" font-size="11" font-weight="bold" lengthAdjust="spacing" textLength="124.4429" x="213.7749" y="791.2339">[Update Successful]</text><g class="message" data-participant-1="DB" data-participant-2="Controller"><polygon fill="#181818" points="452.4995,813.2891,442.4995,817.2891,452.4995,821.2891,448.4995,817.2891" style="stroke:#181818;stroke-width:1;"/><line style="stroke:#181818;stroke-width:1;stroke-dasharray:2.0,2.0;" x1="446.4995" x2="590.2402" y1="817.2891" y2="817.2891"/><text fill="#000000" font-family="sans-serif" font-size="13" lengthAdjust="spacing" textLength="117" x="458.4995" y="812.2231">Update confirmed</text></g><g class="message" data-participant-1="Controller" data-participant-2="UI"><polygon fill="#181818" points="218.3286,842.4219,208.3286,846.4219,218.3286,850.4219,214.3286,846.4219" style="stroke:#181818;stroke-width:1;"/><line style="stroke:#181818;stroke-width:1;" x1="212.3286" x2="440.4995" y1="846.4219" y2="846.4219"/><text fill="#000000" font-family="sans-serif" font-size="13" lengthAdjust="spacing" textLength="152.6167" x="224.3286" y="841.356">Show success message</text></g><line style="stroke:#000000;stroke-width:1;stroke-dasharray:2.0,2.0;" x1="134.332" x2="679.7441" y1="855.4219" y2="855.4219"/><text fill="#000000" font-family="sans-serif" font-size="11" font-weight="bold" lengthAdjust="spacing" textLength="96.5186" x="139.332" y="865.6323">[Update Failed]</text><g class="message" data-participant-1="DB" data-participant-2="Controller"><polygon fill="#181818" points="452.4995,886.3594,442.4995,890.3594,452.4995,894.3594,448.4995,890.3594" style="stroke:#181818;stroke-width:1;"/><line style="stroke:#181818;stroke-width:1;stroke-dasharray:2.0,2.0;" x1="446.4995" x2="590.2402" y1="890.3594" y2="890.3594"/><text fill="#000000" font-family="sans-serif" font-size="13" lengthAdjust="spacing" textLength="83.1987" x="458.4995" y="885.2935">Update error</text></g><g class="message" data-participant-1="Controller" data-participant-2="UI"><polygon fill="#181818" points="218.3286,915.4922,208.3286,919.4922,218.3286,923.4922,214.3286,919.4922" style="stroke:#181818;stroke-width:1;"/><line style="stroke:#181818;stroke-width:1;" x1="212.3286" x2="440.4995" y1="919.4922" y2="919.4922"/><text fill="#000000" font-family="sans-serif" font-size="13" lengthAdjust="spacing" textLength="133.7515" x="224.3286" y="914.4263">Show error message</text></g><line style="stroke:#000000;stroke-width:1;stroke-dasharray:2.0,2.0;" x1="10" x2="689.7441" y1="935.4922" y2="935.4922"/><text fill="#000000" font-family="sans-serif" font-size="11" font-weight="bold" lengthAdjust="spacing" textLength="106.7075" x="15" y="945.7026">[User Not Found]</text><g class="message" data-participant-1="DB" data-participant-2="Controller"><polygon fill="#181818" points="452.4995,966.4297,442.4995,970.4297,452.4995,974.4297,448.4995,970.4297" style="stroke:#181818;stroke-width:1;"/><line style="stroke:#181818;stroke-width:1;stroke-dasharray:2.0,2.0;" x1="446.4995" x2="590.2402" y1="970.4297" y2="970.4297"/><text fill="#000000" font-family="sans-serif" font-size="13" lengthAdjust="spacing" textLength="96.4463" x="458.4995" y="965.3638">User not found</text></g><g class="message" data-participant-1="Controller" data-participant-2="UI"><polygon fill="#181818" points="218.3286,995.5625,208.3286,999.5625,218.3286,1003.5625,214.3286,999.5625" style="stroke:#181818;stroke-width:1;"/><line style="stroke:#181818;stroke-width:1;" x1="212.3286" x2="440.4995" y1="999.5625" y2="999.5625"/><text fill="#000000" font-family="sans-serif" font-size="13" lengthAdjust="spacing" textLength="210.1709" x="224.3286" y="994.4966">Show "User not found" message</text></g><rect fill="#EEEEEE" height="3" style="stroke:#EEEEEE;stroke-width:1;" width="699.7441" x="0" y="1035.1289"/><line style="stroke:#000000;stroke-width:1;" x1="0" x2="699.7441" y1="1035.1289" y2="1035.1289"/><line style="stroke:#000000;stroke-width:1;" x1="0" x2="699.7441" y1="1038.1289" y2="1038.1289"/><rect fill="#EEEEEE" height="23.1328" style="stroke:#000000;stroke-width:2;" width="104.4858" x="297.6292" y="1024.5625"/><text fill="#000000" font-family="sans-serif" font-size="13" font-weight="bold" lengthAdjust="spacing" textLength="85.96" x="303.6292" y="1040.6294">Delete User</text><g class="message" data-participant-1="Admin" data-participant-2="UI"><polygon fill="#181818" points="195.3286,1074.8281,205.3286,1078.8281,195.3286,1082.8281,199.3286,1078.8281" style="stroke:#181818;stroke-width:1;"/><line style="stroke:#181818;stroke-width:1;" x1="45.4321" x2="201.3286" y1="1078.8281" y2="1078.8281"/><text fill="#000000" font-family="sans-serif" font-size="13" lengthAdjust="spacing" textLength="137.8965" x="52.4321" y="1073.7622">Select User to Delete</text></g><g class="message" data-participant-1="UI" data-participant-2="Controller"><polygon fill="#181818" points="429.4995,1103.9609,439.4995,1107.9609,429.4995,1111.9609,433.4995,1107.9609" style="stroke:#181818;stroke-width:1;"/><line style="stroke:#181818;stroke-width:1;" x1="207.3286" x2="435.4995" y1="1107.9609" y2="1107.9609"/><text fill="#000000" font-family="sans-serif" font-size="13" lengthAdjust="spacing" textLength="84.481" x="214.3286" y="1102.895">Send User ID</text></g><g class="message" data-participant-1="Controller" data-participant-2="DB"><polygon fill="#181818" points="579.2402,1133.0938,589.2402,1137.0938,579.2402,1141.0938,583.2402,1137.0938" style="stroke:#181818;stroke-width:1;"/><line style="stroke:#181818;stroke-width:1;" x1="441.4995" x2="585.2402" y1="1137.0938" y2="1137.0938"/><text fill="#000000" font-family="sans-serif" font-size="13" lengthAdjust="spacing" textLength="75.2007" x="448.4995" y="1132.0278">Delete user</text></g><path d="M134.332,1152.0938 L198.7749,1152.0938 L198.7749,1159.2266 L188.7749,1169.2266 L134.332,1169.2266 L134.332,1152.0938" fill="#EEEEEE" style="stroke:#000000;stroke-width:1.5;"/><rect fill="none" height="148.4688" style="stroke:#000000;stroke-width:1.5;" width="545.4121" x="134.332" y="1152.0938"/><text fill="#000000" font-family="sans-serif" font-size="13" font-weight="bold" lengthAdjust="spacing" textLength="19.4429" x="149.332" y="1165.1606">alt</text><text fill="#000000" font-family="sans-serif" font-size="11" font-weight="bold" lengthAdjust="spacing" textLength="131.8604" x="213.7749" y="1164.3042">[Deletion Successful]</text><g class="message" data-participant-1="DB" data-participant-2="Controller"><polygon fill="#181818" points="452.4995,1186.3594,442.4995,1190.3594,452.4995,1194.3594,448.4995,1190.3594" style="stroke:#181818;stroke-width:1;"/><line style="stroke:#181818;stroke-width:1;stroke-dasharray:2.0,2.0;" x1="446.4995" x2="590.2402" y1="1190.3594" y2="1190.3594"/><text fill="#000000" font-family="sans-serif" font-size="13" lengthAdjust="spacing" textLength="108.3608" x="458.4995" y="1185.2935">Confirm deletion</text></g><g class="message" data-participant-1="Controller" data-participant-2="UI"><polygon fill="#181818" points="218.3286,1215.4922,208.3286,1219.4922,218.3286,1223.4922,214.3286,1219.4922" style="stroke:#181818;stroke-width:1;"/><line style="stroke:#181818;stroke-width:1;" x1="212.3286" x2="440.4995" y1="1219.4922" y2="1219.4922"/><text fill="#000000" font-family="sans-serif" font-size="13" lengthAdjust="spacing" textLength="152.6167" x="224.3286" y="1214.4263">Show success message</text></g><line style="stroke:#000000;stroke-width:1;stroke-dasharray:2.0,2.0;" x1="134.332" x2="679.7441" y1="1228.4922" y2="1228.4922"/><text fill="#000000" font-family="sans-serif" font-size="11" font-weight="bold" lengthAdjust="spacing" textLength="103.936" x="139.332" y="1238.7026">[Deletion Failed]</text><g class="message" data-participant-1="DB" data-participant-2="Controller"><polygon fill="#181818" points="452.4995,1259.4297,442.4995,1263.4297,452.4995,1267.4297,448.4995,1263.4297" style="stroke:#181818;stroke-width:1;"/><line style="stroke:#181818;stroke-width:1;stroke-dasharray:2.0,2.0;" x1="446.4995" x2="590.2402" y1="1263.4297" y2="1263.4297"/><text fill="#000000" font-family="sans-serif" font-size="13" lengthAdjust="spacing" textLength="90.6382" x="458.4995" y="1258.3638">Deletion error</text></g><g class="message" data-participant-1="Controller" data-participant-2="UI"><polygon fill="#181818" points="218.3286,1288.5625,208.3286,1292.5625,218.3286,1296.5625,214.3286,1292.5625" style="stroke:#181818;stroke-width:1;"/><line style="stroke:#181818;stroke-width:1;" x1="212.3286" x2="440.4995" y1="1292.5625" y2="1292.5625"/><text fill="#000000" font-family="sans-serif" font-size="13" lengthAdjust="spacing" textLength="133.7515" x="224.3286" y="1287.4966">Show error message</text></g><rect fill="#EEEEEE" height="3" style="stroke:#EEEEEE;stroke-width:1;" width="699.7441" x="0" y="1328.1289"/><line style="stroke:#000000;stroke-width:1;" x1="0" x2="699.7441" y1="1328.1289" y2="1328.1289"/><line style="stroke:#000000;stroke-width:1;" x1="0" x2="699.7441" y1="1331.1289" y2="1331.1289"/><rect fill="#EEEEEE" height="23.1328" style="stroke:#000000;stroke-width:2;" width="99.6553" x="300.0444" y="1317.5625"/><text fill="#000000" font-family="sans-serif" font-size="13" font-weight="bold" lengthAdjust="spacing" textLength="81.1294" x="306.0444" y="1333.6294">View Users</text><g class="message" data-participant-1="Admin" data-participant-2="UI"><polygon fill="#181818" points="195.3286,1367.8281,205.3286,1371.8281,195.3286,1375.8281,199.3286,1371.8281" style="stroke:#181818;stroke-width:1;"/><line style="stroke:#181818;stroke-width:1;" x1="45.4321" x2="201.3286" y1="1371.8281" y2="1371.8281"/><text fill="#000000" font-family="sans-serif" font-size="13" lengthAdjust="spacing" textLength="127.8672" x="52.4321" y="1366.7622">Select "View Users"</text></g><g class="message" data-participant-1="UI" data-participant-2="Controller"><polygon fill="#181818" points="429.4995,1396.9609,439.4995,1400.9609,429.4995,1404.9609,433.4995,1400.9609" style="stroke:#181818;stroke-width:1;"/><line style="stroke:#181818;stroke-width:1;" x1="207.3286" x2="435.4995" y1="1400.9609" y2="1400.9609"/><text fill="#000000" font-family="sans-serif" font-size="13" lengthAdjust="spacing" textLength="109.1035" x="214.3286" y="1395.895">Request user list</text></g><g class="message" data-participant-1="Controller" data-participant-2="DB"><polygon fill="#181818" points="579.2402,1426.0938,589.2402,1430.0938,579.2402,1434.0938,583.2402,1430.0938" style="stroke:#181818;stroke-width:1;"/><line style="stroke:#181818;stroke-width:1;" x1="441.4995" x2="585.2402" y1="1430.0938" y2="1430.0938"/><text fill="#000000" font-family="sans-serif" font-size="13" lengthAdjust="spacing" textLength="94.542" x="448.4995" y="1425.0278">Fetch all users</text></g><path d="M134.332,1445.0938 L198.7749,1445.0938 L198.7749,1452.2266 L188.7749,1462.2266 L134.332,1462.2266 L134.332,1445.0938" fill="#EEEEEE" style="stroke:#000000;stroke-width:1.5;"/><rect fill="none" height="148.4688" style="stroke:#000000;stroke-width:1.5;" width="545.4121" x="134.332" y="1445.0938"/><text fill="#000000" font-family="sans-serif" font-size="13" font-weight="bold" lengthAdjust="spacing" textLength="19.4429" x="149.332" y="1458.1606">alt</text><text fill="#000000" font-family="sans-serif" font-size="11" font-weight="bold" lengthAdjust="spacing" textLength="87.4038" x="213.7749" y="1457.3042">[Users Found]</text><g class="message" data-participant-1="DB" data-participant-2="Controller"><polygon fill="#181818" points="452.4995,1479.3594,442.4995,1483.3594,452.4995,1487.3594,448.4995,1483.3594" style="stroke:#181818;stroke-width:1;"/><line style="stroke:#181818;stroke-width:1;stroke-dasharray:2.0,2.0;" x1="446.4995" x2="590.2402" y1="1483.3594" y2="1483.3594"/><text fill="#000000" font-family="sans-serif" font-size="13" lengthAdjust="spacing" textLength="99.6646" x="458.4995" y="1478.2935">Return user list</text></g><g class="message" data-participant-1="Controller" data-participant-2="UI"><polygon fill="#181818" points="218.3286,1508.4922,208.3286,1512.4922,218.3286,1516.4922,214.3286,1512.4922" style="stroke:#181818;stroke-width:1;"/><line style="stroke:#181818;stroke-width:1;" x1="212.3286" x2="440.4995" y1="1512.4922" y2="1512.4922"/><text fill="#000000" font-family="sans-serif" font-size="13" lengthAdjust="spacing" textLength="103.6318" x="224.3286" y="1507.4263">Display user list</text></g><line style="stroke:#000000;stroke-width:1;stroke-dasharray:2.0,2.0;" x1="134.332" x2="679.7441" y1="1521.4922" y2="1521.4922"/><text fill="#000000" font-family="sans-serif" font-size="11" font-weight="bold" lengthAdjust="spacing" textLength="107.9966" x="139.332" y="1531.7026">[No Users Found]</text><g class="message" data-participant-1="DB" data-participant-2="Controller"><polygon fill="#181818" points="452.4995,1552.4297,442.4995,1556.4297,452.4995,1560.4297,448.4995,1556.4297" style="stroke:#181818;stroke-width:1;"/><line style="stroke:#181818;stroke-width:1;stroke-dasharray:2.0,2.0;" x1="446.4995" x2="590.2402" y1="1556.4297" y2="1556.4297"/><text fill="#000000" font-family="sans-serif" font-size="13" lengthAdjust="spacing" textLength="113.0137" x="458.4995" y="1551.3638">Return empty list</text></g><g class="message" data-participant-1="Controller" data-participant-2="UI"><polygon fill="#181818" points="218.3286,1581.5625,208.3286,1585.5625,218.3286,1589.5625,214.3286,1585.5625" style="stroke:#181818;stroke-width:1;"/><line style="stroke:#181818;stroke-width:1;" x1="212.3286" x2="440.4995" y1="1585.5625" y2="1585.5625"/><text fill="#000000" font-family="sans-serif" font-size="13" lengthAdjust="spacing" textLength="149.5" x="224.3286" y="1580.4966">Show "No users found"</text></g><!--SRC=[bPNFQkCm4CRlUWhXK_VG5rX8OLid42XbQSZULMco5SYILv8fVViTZUpwJssroS4GwwVvD3EVna96v_alrMZBMk6ZbheLDlAANl6ZZU0lGaB5HU3duvmv1_3ymTdedJ7WYHd_hh2FEaH-KuieNaI07xIXlcTijyCZA4xCRiUozkqT2lAV_0G699qe4nN3rxWuAY7q3FywmE03n2QhGw3VtZLjv1TCc9HgY4ARi93RfvHvbm3L0ojwf-wbqN6EpINhUyJISIoy4SUOC14tIWaXC8u_H6wNWUbaGYbGXAoaSNfrRppaCBp1X_WB34m0Vi1ZT1usO- -znzo7BQNmC2F1AkhHNc7AnIRHOdH4bjeqg_zAtGuGvMjVNNHBBXrjEhZEgdBrXdwK4koMuC84QjdSn1HyqE8nGHMaAQqpOJcm1-ayrZMXb5rUw_rnwGojR2QQQUdiHVkcDyirXaaicQQFbBmp2LFG96zygGUVl4Okof8f_oSNlzDCwzAD7R0jjMhELf-iMwC_8tpFl9bTlVKOBcF7UisslSfus-c5TdRPrhLq7t8lqKDvp_Nt_qDjqimrfGzkRELrW-2FnfcMwX2sn_N850SstGM3tuNjCI2C8IoCOo1yOPrdY9sta-0RETOwj4QyJq0gv9ExHWNmg_9UbCaUnQYKHk_HLCt_]--></g></svg>